<svg width="221" height="209" viewBox="0 0 221 209" fill="none" xmlns="http://www.w3.org/2000/svg">
<g opacity="0.2">
<path d="M198.729 101.292C198.729 102.787 198.655 104.282 198.729 105.766C198.871 108.011 197.957 110.165 198.281 112.411C197.713 113.133 197.872 113.979 197.855 114.792C197.855 115.361 196.845 114.895 196.981 115.685C197.022 115.88 197.022 116.083 196.981 116.278C196.94 116.474 196.859 116.659 196.743 116.822C196.062 117.356 196.175 118.038 196.175 118.726V119.368C196.175 120.857 196.499 122.449 196.09 123.819C195.681 125.189 196.169 126.706 195.324 127.968C195.505 129.918 194.671 131.782 194.87 133.76C195.023 135.307 194.87 136.881 194.91 138.444C194.91 139.251 194.7 139.7 193.803 139.877C192.793 140.076 193.031 140.167 193.133 141.366C193.218 142.383 194.115 143.003 194.047 143.992C194.047 144.128 194.002 144.259 193.979 144.39C193.834 144.323 193.684 144.27 193.53 144.231C192.719 144.117 192.543 143.407 192.395 142.827C192.248 142.247 191.907 142.372 191.612 142.418C191.18 142.549 190.818 142.846 190.605 143.245C190.392 143.644 190.346 144.111 190.477 144.543C191.09 145.908 191.153 145.936 190.477 147.442C190.273 147.908 190.148 148.176 190.568 148.477C190.795 148.609 191.034 148.717 191.283 148.801C191.357 148.619 191.527 148.426 191.499 148.267C191.317 147.403 191.828 146.686 191.936 145.885C192.032 145.214 192.446 145.032 193.071 144.936C193.814 144.822 194.064 145.174 194.206 145.754C194.626 147.573 195.715 149.102 196.385 150.819C197.273 152.836 198.418 154.729 199.79 156.452C201.283 158.492 203.025 160.317 204.518 162.358C205.512 163.61 206.716 164.68 208.076 165.518C209.387 166.382 210.346 167.553 211.481 168.576C212.003 169.059 212.491 169.577 212.991 170.083C213.343 170.441 213.621 170.816 214.188 170.27C214.279 170.188 214.387 170.126 214.505 170.089C214.622 170.052 214.746 170.041 214.868 170.057C214.989 170.073 215.106 170.114 215.211 170.18C215.315 170.245 215.404 170.332 215.471 170.435C215.624 170.623 215.818 170.772 216.039 170.871C216.26 170.97 216.501 171.015 216.742 171.003C217.679 171.06 218.604 171.327 219.546 171.39C220.851 171.469 221.203 171.873 220.896 173.158C220.862 173.283 220.789 173.482 220.715 173.493C219.393 173.681 219.461 175.198 218.502 175.767C217.542 176.335 216.839 177.21 215.936 177.83C215.015 178.47 214.034 179.02 213.008 179.473C212.111 179.865 211.561 179.359 211.073 178.279C210.84 177.762 210.829 177.085 209.989 176.784C209.421 176.574 209.081 175.647 208.604 175.079C208.457 174.84 208.248 174.647 207.998 174.52C207.749 174.392 207.47 174.336 207.191 174.357C206.816 174.363 206.445 174.281 206.108 174.117C205.771 173.953 205.477 173.712 205.25 173.413C203.99 172.053 202.542 170.881 200.948 169.935C200.38 169.616 200.38 169.099 200.585 168.485C201.186 166.672 200.619 165.893 198.774 165.848C197.401 165.814 196.056 165.848 194.802 166.587C194.688 166.671 194.556 166.728 194.417 166.754C194.277 166.78 194.134 166.773 193.997 166.736C193.861 166.698 193.734 166.63 193.628 166.536C193.522 166.442 193.438 166.325 193.383 166.195C193.128 165.626 192.923 165.257 192.248 165.416C191.726 165.535 191.504 165.319 191.521 164.739C191.561 163.244 191.567 161.755 191.521 160.26C191.465 159.751 191.521 159.236 191.685 158.751C191.848 158.266 192.116 157.823 192.469 157.452C192.605 157.31 192.798 157.123 192.798 156.958C192.798 155.406 192.742 153.86 192.696 152.314C192.696 152.263 192.611 152.2 192.549 152.166C191.919 151.779 193.025 150.461 191.862 150.58C191.17 150.648 191.765 151.717 191.516 152.217C191.001 153.289 190.433 154.334 189.813 155.349C189.388 156.042 188.898 156.693 188.349 157.293C187.662 158.038 187.674 157.981 187.169 157.026C186.601 155.963 186.533 154.752 186.068 153.644C185.159 151.467 184.677 149.096 183.951 146.857C183.553 145.586 183.243 144.289 183.026 142.975C182.929 142.406 182.889 141.792 183.848 141.968C184.808 142.145 185.256 141.4 185.551 140.724C185.826 140.038 185.975 139.308 185.988 138.569C186.039 136.296 186.045 134.022 185.988 131.748C185.988 130.952 185.602 130.162 185.602 129.367C185.538 126.189 186.537 123.082 188.44 120.539C188.667 120.226 189.007 119.811 188.939 119.487C188.61 116.935 189.643 114.73 190.528 112.456C191.275 110.777 191.63 108.95 191.567 107.113C191.453 106.452 191.297 105.799 191.101 105.158C190.937 104.299 190.812 103.452 190.67 102.566C190.528 101.679 190.454 100.821 190.233 99.9736C189.705 97.9273 189.161 95.881 188.531 93.8688C188.26 93.3297 187.853 92.871 187.35 92.5387C186.567 91.9021 185.699 91.3734 184.898 90.7595C183.843 89.9524 183.519 88.7985 183.457 87.5252C183.406 86.5816 183.394 86.5134 182.39 86.5816C181.601 86.6328 180.937 86.2463 180.216 86.1553C178.173 85.8882 176.431 86.8431 174.762 87.8606C173.303 88.6924 171.922 89.6551 170.637 90.7368C169.076 92.101 167.118 92.5273 165.336 93.38C165.211 93.4368 164.802 93.1981 164.768 93.0332C164.553 92.3284 165.188 91.328 164.439 90.9016C163.906 90.5947 163.054 90.805 162.345 90.8505C161.967 90.9292 161.575 90.8959 161.216 90.7545C160.857 90.6132 160.547 90.3699 160.325 90.0547C160.051 89.7276 159.753 89.4216 159.434 89.1395C158.48 88.1505 158.497 87.1046 159.502 86.0814C161.295 84.2682 163.111 82.4663 164.91 80.653C165.245 80.3177 165.648 80.0846 165.62 79.448C165.586 78.7034 165.444 78.6408 164.678 77.7427C162.975 75.6907 160.705 76.5661 158.633 76.3671C158.435 76.9356 157.89 77.1686 157.459 77.504C156.692 78.1349 156.102 78.9819 155.313 79.573C154.933 79.8325 154.653 80.2164 154.524 80.6592C154.395 81.1019 154.423 81.576 154.604 82.0002C154.869 82.7018 154.985 83.451 154.945 84.2C154.973 85.2857 154.615 85.5983 153.594 85.2913C150.921 84.4807 148.42 83.184 146.216 81.4659C146.045 81.3392 145.895 81.1856 145.773 81.0111C145.642 80.8522 145.579 80.648 145.597 80.4427C145.631 80.312 145.893 80.1983 146.063 80.1699C146.993 80.0107 147.941 79.9311 148.861 79.7151C149.349 79.6015 150.16 79.3059 150.183 79.0387C150.245 78.2543 150.563 77.3335 149.916 76.6286C149.723 76.4183 149.513 76.225 149.315 76.0261C148.628 75.3383 147.828 74.7471 148.094 73.5307C148.231 72.9112 147.726 72.5531 147.096 72.4905C144.899 72.2575 143.35 73.1783 142.135 75.0882C141.466 76.1398 141.386 77.3619 140.932 78.4305C140.58 79.2775 140.62 80.2892 140.456 81.2215C140.432 81.4856 140.327 81.7357 140.155 81.9377C139.156 82.7846 138.486 83.9783 137.198 84.5467C136.658 84.8892 136.194 85.3402 135.836 85.8711C133.969 88.0539 131.648 89.708 129.389 91.4132C128.106 92.3467 126.643 93.0029 125.093 93.3402C123.237 93.7665 121.472 92.6467 120.462 90.6856C120.161 90.1172 119.894 89.509 119.627 88.9008C119.61 88.8021 119.613 88.701 119.635 88.6034C119.658 88.5057 119.699 88.4136 119.758 88.3324C122.028 84.8139 124.111 81.2215 126.058 77.5324C126.659 76.3956 127.159 75.037 128.328 74.1901C128.405 74.0924 128.458 73.9769 128.481 73.854C128.504 73.7311 128.496 73.6045 128.458 73.4853C128.275 73.0551 128.026 72.6562 127.72 72.3029C126.438 70.8535 123.333 70.3987 121.478 71.1661C120.91 71.3935 120.836 71.5981 120.91 72.0074C121.063 72.86 121.268 73.7126 121.478 74.5482C121.523 74.7358 121.744 74.8949 121.739 75.0712C121.717 75.4773 121.669 75.8817 121.597 76.2819C121.234 76.1568 120.87 76.0432 120.518 75.901C119.784 75.5664 119.102 75.1281 118.492 74.5994C114.889 71.7118 111.682 68.3467 107.568 66.0731C106.778 65.6302 106.174 64.9182 105.865 64.0665C105.62 63.5096 105.269 63.0058 104.832 62.583C103.947 61.628 103.924 61.6508 103.362 62.1623C102.505 62.9524 102.346 63.7937 102.931 64.4985C103.022 64.6073 103.123 64.7081 103.232 64.7998C103.798 65.2025 104.239 65.7568 104.505 66.3993C104.771 67.0417 104.851 67.7462 104.736 68.432C104.681 68.7444 104.724 69.0662 104.861 69.3526C104.997 69.6389 105.219 69.8755 105.496 70.0293C106.546 70.7284 107.624 71.3878 108.737 71.979C109.066 72.1552 109.571 71.979 109.963 72.104C110.052 72.1801 110.121 72.2782 110.162 72.3888C110.203 72.4993 110.214 72.6186 110.195 72.7349C109.872 73.3886 107.988 73.9798 107.318 73.6274C105.992 72.9953 104.571 72.5881 103.113 72.4223C101.977 72.2404 100.729 72.3882 99.679 72.0244C98.6206 71.7347 97.5229 71.6157 96.4271 71.672C95.2238 71.581 94.0153 71.581 92.812 71.672C91.5464 71.8368 90.5419 71.2173 89.5771 70.7114C88.6861 70.2566 87.988 69.4267 87.1708 68.8015C85.6157 67.6021 84.0437 66.4312 82.4717 65.2489C82.3695 65.1693 82.239 65.1124 82.1425 65.0272C80.491 63.5209 78.8282 62.0316 77.2107 60.4798C76.8521 60.0796 76.5469 59.6344 76.3027 59.1554C76.0984 58.82 76.0757 58.5529 76.5751 58.3994C77.4263 58.1394 78.1759 57.621 78.7203 56.9158C78.9385 56.6657 79.0855 56.3614 79.146 56.0348C79.2755 55.4829 79.2579 54.9066 79.0949 54.3636C78.8906 53.9487 78.2209 53.7952 77.8293 53.4257C77.3235 52.8724 76.6374 52.5177 75.8941 52.4253C75.6388 52.3577 75.3996 52.2399 75.1903 52.0786C74.4923 51.6977 74.6228 50.9076 74.288 50.3222C73.4537 50.5041 72.9997 49.9356 72.54 49.4127C72.4727 49.3359 72.4235 49.245 72.396 49.1466C72.3685 49.0482 72.3634 48.9449 72.3811 48.8443C72.4349 48.7666 72.5071 48.7035 72.5914 48.6608C72.6756 48.6182 72.7691 48.5972 72.8635 48.5998C73.9475 48.7079 75.0598 48.31 76.1154 48.975C76.4729 49.2024 77.0915 49.0262 77.5853 48.975C77.6364 48.975 77.7499 48.6737 77.6988 48.6112C76.4109 47.0795 74.8925 45.7581 73.1983 44.6948C72.5868 44.3954 71.9086 44.2584 71.229 44.2969C70.7636 44.2969 70.6615 44.4788 70.6331 44.9108C70.5582 45.5749 70.4175 46.2299 70.2132 46.8662C69.9124 47.8268 69.447 47.9177 68.7319 47.2982C68.0168 46.6786 67.9828 45.7521 67.6877 44.9563C66.8194 42.5689 66.4221 40.0622 65.9056 37.5668C65.724 36.6915 65.7467 35.782 65.4913 34.9748C65.2089 34.2084 65.0872 33.3918 65.1338 32.5761C65.1849 32.0475 64.8784 31.4734 65.4006 30.9845C65.9485 30.383 66.6676 29.9644 67.4607 29.7852C68.2644 29.7151 69.0591 29.5647 69.8329 29.3361C70.5925 29.0395 71.2831 28.5898 71.862 28.0148C72.4409 27.4399 72.8957 26.752 73.1983 25.9938C73.4026 25.5106 73.7658 24.857 73.5786 24.4932C73.1705 23.7036 72.6202 22.9963 71.9554 22.4071C71.498 22.0257 70.9403 21.7849 70.3493 21.7136C69.0599 21.5563 67.7544 21.8258 66.6321 22.481C64.6287 23.6178 62.5573 24.6182 60.5028 25.6641C59.9785 25.9343 59.4361 26.1679 58.8797 26.3633C58.7825 26.3797 58.6828 26.3706 58.5902 26.3367C58.4977 26.3028 58.4156 26.2453 58.3519 26.17C58.3159 26.0753 58.3059 25.9726 58.3228 25.8726C58.3398 25.7727 58.3831 25.6791 58.4484 25.6016C59.3848 24.6296 60.3666 23.7031 61.286 22.7197C61.732 22.2106 62.1345 21.6649 62.4892 21.0883C62.5437 21.0064 62.5698 20.9088 62.5635 20.8106C62.5572 20.7124 62.5189 20.6189 62.4544 20.5446C62.3899 20.4703 62.3028 20.4193 62.2066 20.3995C62.1103 20.3796 62.0102 20.392 61.9216 20.4347C60.7298 21.2873 59.2202 21.617 58.2043 22.8106C57.5824 23.543 56.8275 24.1505 55.9797 24.6012C55.2213 24.9946 54.6498 25.6733 54.3906 26.4883C53.9536 27.4774 52.7731 28.1481 51.8764 28.9098C50.9798 29.6715 49.9298 30.2342 49.1807 31.0868C47.2228 33.3094 44.6405 34.4178 41.9732 35.3102C39.6293 36.0833 37.3195 36.97 34.8053 37.0155C33.2446 37.959 31.8996 37.1178 30.4184 36.6574C29.4649 36.3561 29.9019 35.8331 29.8168 35.3955C29.7317 34.9578 30.1289 34.9578 30.4694 34.8668C32.9665 34.179 35.1402 32.775 37.4557 31.6894C38.0116 31.4941 38.543 31.2347 39.0391 30.9163C39.4989 30.4958 39.9188 30.0334 40.2933 29.5351C39.7258 29.5009 39.1582 29.4498 38.6304 29.4441C37.0641 29.4441 35.5885 29.9443 34.0902 30.3138C33.7838 30.3877 33.3184 30.6435 33.29 30.8822C33.1765 31.9452 32.2458 32.1327 31.5875 32.4113C29.5725 33.3187 27.6991 34.5134 26.0257 35.9582C24.6056 37.0919 23.1261 38.1488 21.5934 39.1243C20.9093 39.5316 20.1665 39.8307 19.3914 40.011C16.8222 40.7427 14.0985 40.7289 11.5368 39.9712C11.2313 39.8488 10.9162 39.7518 10.5947 39.6813C9.09649 39.5222 7.58687 39.4199 6.09428 39.2209C5.90357 39.195 5.72051 39.129 5.55714 39.0271C5.39378 38.9252 5.25383 38.7898 5.14652 38.6298C5.10263 38.4335 5.10225 38.23 5.1454 38.0336C5.18854 37.8372 5.27416 37.6526 5.39623 37.4929C5.86805 36.9495 6.37217 36.4351 6.90584 35.9525C7.00086 35.8143 7.07541 35.6631 7.12718 35.5035C6.92287 35.5035 6.69586 35.3614 6.53128 35.4239C4.56764 36.1685 2.49618 36.5152 0.566598 37.4759C-1.98726 38.7548 -4.72273 38.9879 -7.18578 36.9643C-7.4063 36.8164 -7.65958 36.7247 -7.92356 36.6971C-8.98483 36.4982 -8.91105 36.5039 -8.98483 35.4466C-9.02685 35.1022 -8.98124 34.7528 -8.85225 34.4308C-8.72326 34.1088 -8.51507 33.8247 -8.24705 33.6049C-7.44684 32.9001 -6.77149 32.0645 -5.97695 31.3654C-3.70686 29.4043 -2.25967 26.818 -0.460621 24.4818C-0.392518 24.3909 -0.460621 24.1805 -0.409544 24.0782C0.0573835 23.3322 0.335927 22.4836 0.402017 21.6056C0.362289 21.2475 0.362289 20.861 0.895761 20.9178C1.29709 20.9597 1.69523 21.028 2.08756 21.1224C4.79465 21.8045 7.19528 23.254 9.64131 24.4648C10.9353 25.1014 12.1781 25.6698 13.6424 25.6016C13.9094 25.6085 14.1721 25.6705 14.4142 25.7835C14.8188 25.9675 15.2581 26.0627 15.7025 26.0627C16.1469 26.0627 16.5861 25.9675 16.9907 25.7835C17.6903 25.5246 18.4592 25.5246 19.1587 25.7835C19.9342 26.0372 20.767 26.057 21.5536 25.8403C21.8131 25.7001 22.1075 25.6379 22.4015 25.6611C22.6954 25.6843 22.9764 25.7919 23.2108 25.9711C23.4889 26.153 23.8464 26.1075 23.8124 26.5793C23.7897 26.9351 23.7897 27.2921 23.8124 27.6479C23.8521 28.2163 24.1302 28.2959 24.6353 27.9605C25.4128 27.449 26.1619 26.6475 27.0019 26.5281C28.1369 26.3633 29.2209 25.7721 30.407 25.9995C30.9709 26.0911 31.5457 26.0911 32.1096 25.9995C32.4799 25.9374 32.859 25.9512 33.2238 26.0401C33.5886 26.1291 33.9317 26.2912 34.2321 26.5167C34.9813 27.0852 35.4693 26.9772 36.0142 26.3519C36.156 26.1927 36.3206 26.0563 36.4625 25.8972C37.2854 24.9763 38.1083 24.1123 39.4363 25.1469C39.5669 25.2492 39.8563 25.198 40.0663 25.1469C41.5207 24.9315 42.9625 24.6374 44.3851 24.2658C45.7025 23.8584 46.9629 23.2854 48.1365 22.5605C49.5662 21.6491 50.9195 20.6226 52.1829 19.4911C54.3338 17.5926 56.3258 15.5121 58.5165 13.6534C60.5766 11.9084 62.597 10.0837 65.009 8.80479C65.9547 8.20536 66.954 7.69538 67.9941 7.28143C70.3621 6.57144 72.8896 6.59919 75.2414 7.36101C76.8418 7.84985 77.8804 9.15153 79.3333 9.82226C79.4581 9.8791 79.4468 10.1917 79.5546 10.3509C80.6896 11.9993 81.0869 14.0513 82.5 15.5292C82.4092 16.3307 82.8973 16.9218 83.2549 17.5585C83.6124 18.1951 83.0619 18.9852 83.8224 19.4797C83.8621 19.4797 83.7259 19.9856 83.6351 19.997C82.6249 20.122 83.0222 20.4688 83.323 21.0656C83.8564 22.1172 84.7134 23.0039 84.8836 24.2544C85.0028 25.1696 85.3774 26.0506 85.5249 26.9658C85.7236 28.2447 85.7974 29.5464 85.9733 30.8311C86.0527 31.3995 86.2741 31.9679 86.3819 32.5761C86.4897 33.1843 86.1435 33.8664 86.8132 34.3155C86.812 35.4077 86.9455 36.4959 87.2105 37.5555C87.6815 40.1651 88.3959 42.7247 89.3444 45.2007C89.8495 46.6161 90.8767 47.139 92.182 47.2982C92.7494 47.348 93.2966 47.5336 93.7775 47.8392C94.2585 48.1448 94.6591 48.5616 94.9458 49.0546C95.9674 50.6291 97.284 51.8967 99.3555 52.0104C99.5542 51.9964 99.7523 52.0441 99.923 52.1468C101.013 53.2495 102.42 53.636 103.867 53.9373C104.259 54.0408 104.66 54.1055 105.065 54.1306C106.342 54.1306 107.619 54.1988 108.89 54.1306C111.479 53.9421 114.024 53.3595 116.438 52.4026C118.62 51.6098 120.665 50.4802 122.499 49.0546C122.909 48.6861 123.349 48.3533 123.816 48.0598C124.153 47.845 124.56 47.7715 124.951 47.8552C125.155 47.9229 125.328 48.0617 125.438 48.2464C125.549 48.431 125.589 48.6493 125.552 48.8613C125.172 51.3169 126.046 53.5565 126.846 55.7847C127.13 56.5805 127.147 57.5695 128.208 57.9845C128.555 58.1209 128.776 58.712 128.935 59.1213C129.673 61.0937 130.365 63.1002 131.08 65.0556C131.178 65.2753 131.293 65.4863 131.426 65.6865C131.672 65.5883 131.901 65.45 132.102 65.2773C133.186 63.8903 133.623 62.2249 134.065 60.5537C134.599 58.5074 135.2 56.4781 135.768 54.4375C137.425 52.971 136.421 51.4817 135.768 50.038C135.251 48.9011 134.633 47.8041 134.065 46.6956C132.822 46.5494 131.57 46.4962 130.32 46.5365C128.555 46.707 126.858 46.2523 125.212 45.9681C123.566 45.6839 122.312 44.2628 121.778 42.5576C121.245 40.8523 120.411 39.039 120.411 37.1178C119.781 36.3334 120.24 35.3159 119.928 34.5485C119.657 33.7769 119.532 32.9616 119.559 32.1441C119.557 32.0063 119.54 31.8691 119.508 31.7348C119.06 29.9614 119.077 30.0296 120.672 29.4214C121.794 29.044 122.861 28.5183 123.844 27.8582C124.627 27.2898 125.212 27.1477 126.069 27.5967C126.279 27.712 126.512 27.7775 126.751 27.7884C126.99 27.7992 127.229 27.7551 127.448 27.6593C128.452 26.7498 128.975 27.5285 129.525 28.1424C130.278 28.9334 131.307 29.4019 132.397 29.4498C133.265 29.5464 134.099 29.7454 134.99 29.8591C135.467 29.9273 136.125 29.7397 136.398 29.9898C136.67 30.2399 136.494 30.9049 136.596 31.371C136.875 32.6045 137.164 33.8607 137.527 35.043C137.782 36.1108 137.889 37.2087 137.845 38.3058C137.885 39.4085 137.38 39.8007 136.307 39.67C136.104 39.6486 135.909 39.5784 135.739 39.4653C135.172 39.0333 134.848 39.1243 134.871 39.903C134.894 40.329 134.894 40.756 134.871 41.182C134.814 41.9209 135.081 42.6826 134.485 43.3818C134.406 43.5752 134.369 43.7837 134.378 43.9928C134.387 44.2018 134.441 44.4064 134.536 44.5925C134.61 44.7687 135.149 44.7687 135.484 44.7801C135.819 44.7914 136.211 44.7801 136.154 45.303C135.961 47.0083 137.022 48.2247 137.76 49.5377C138.288 50.4813 139.184 51.2089 139.82 52.1013C141.789 54.8809 144.44 57.0068 146.766 59.4396C147.669 60.2968 148.616 61.1051 149.604 61.8611C150.495 62.6171 151.205 63.5379 152.254 64.1745C153.475 64.9135 154.479 66.0276 155.569 67.0166C155.83 67.2497 156.04 67.6874 156.324 67.7385C157.311 67.9091 157.345 68.5912 157.561 69.3585C157.691 69.8133 157.986 70.7057 158.957 70.4101C159.308 70.3503 159.667 70.3503 160.018 70.4101C162.233 70.4565 164.443 70.6178 166.641 70.8933C168.17 71.0764 169.686 71.3517 171.181 71.7175C172.634 72.1438 174.132 72.3825 175.574 72.8998C176.516 73.2408 177.685 73.0305 178.741 72.9453C179.7 72.8771 180.443 72.9851 180.858 73.9912C180.983 74.2451 181.188 74.451 181.441 74.5772C181.694 74.7035 181.982 74.7432 182.259 74.6903C183.491 74.588 184.603 75.1053 185.761 75.4463C186.567 75.6851 187.373 76.1057 188.332 75.9806C189.615 75.8158 190.477 76.3728 191.294 77.5495C192.324 79.0231 193.271 80.5526 194.132 82.1309C194.762 83.2678 194.876 84.5297 195.33 85.6949C195.846 87.025 195.664 88.4802 196.124 89.8387C196.306 90.356 196.311 90.8789 196.782 91.2768C197.679 92.0328 197.594 93.4709 198.712 94.1189C198.865 94.2098 198.712 94.7896 198.712 95.1477L198.729 101.292Z" fill="white"/>
<path d="M108.09 177.171C108.09 177.739 108.09 178.308 108.09 178.876C108.09 179.445 108.271 180.121 108.027 180.547C107.783 180.974 107.125 181.019 106.626 181.167C106.296 181.264 105.859 181.207 105.973 181.735C106.353 183.441 104.951 184.066 104.083 185.004C103.668 185.34 103.23 185.648 102.772 185.925C102.034 186.493 101.206 186.55 100.604 185.851C99.8718 184.934 98.9749 184.163 97.9596 183.577C97.5055 183.338 97.2785 182.616 97.0345 182.076C96.467 180.883 95.9278 179.678 95.4341 178.478C94.9343 177.359 94.7203 176.133 94.8115 174.911C94.9026 173.688 95.296 172.508 95.9562 171.475C96.4659 170.585 96.6861 169.558 96.5861 168.537C96.5861 168.36 96.4443 168.031 96.3705 168.031C95.7519 168.031 94.946 167.889 94.5544 168.213C93.5329 169.082 92.3751 169.918 92.324 171.526C92.2632 171.919 92.1222 172.294 91.9097 172.629C91.7992 172.852 91.6425 173.049 91.4501 173.206C91.2578 173.363 91.0341 173.478 90.794 173.542C90.554 173.606 90.3031 173.618 90.058 173.577C89.813 173.537 89.5794 173.444 89.3729 173.306C89.2466 173.206 89.1464 173.076 89.0812 172.929C89.0159 172.781 88.9875 172.62 88.9983 172.459C89.8042 170.287 90.1334 167.985 90.9052 165.791C91.1599 164.82 91.3589 163.835 91.5011 162.841C91.5595 162.517 91.6728 162.206 91.836 161.92C92.3013 161.164 92.324 160.715 91.8019 160.01C91.433 159.516 90.7577 159.084 90.6669 158.561C90.5363 157.481 89.9858 156.492 90.1618 155.332C90.3888 153.82 89.5943 152.382 89.7305 150.819C89.8496 149.26 89.8496 147.694 89.7305 146.135C89.6453 144.737 90.0142 143.412 90.1731 142.048C90.332 140.684 90.2639 139.468 90.4853 138.155C90.7066 136.842 90.9279 135.46 91.0528 134.096C91.2202 132.979 91.4437 131.871 91.7225 130.776C92.0176 129.333 92.3411 127.906 92.6929 126.479C93.5351 122.869 94.6429 119.325 96.0073 115.878C96.7053 114.173 97.2729 112.422 97.8517 110.677C98.022 110.166 98.1979 109.717 98.6576 109.614C99.6054 109.398 99.6565 108.756 99.5883 108.023C99.4692 106.789 99.9799 105.863 100.655 104.828C102.645 101.62 105.043 98.6853 107.789 96.0972C109.764 94.3181 111.694 92.4366 114.032 91.1349C114.724 90.7541 115.541 90.0833 116.557 90.7882C116.892 91.0212 117.017 91.1349 117.051 91.5101C117.048 92.1855 116.818 92.8402 116.398 93.3688C116.064 93.9568 115.66 94.5026 115.195 94.9945C115.035 95.1807 114.928 95.407 114.886 95.6492C114.844 95.8915 114.869 96.1406 114.957 96.37C115.019 96.6429 115.49 96.8418 115.797 97.0351C116.103 97.2284 116.325 97.1943 116.512 97.3534C117.119 97.865 117.562 97.6717 118.141 97.2284C119.304 96.3303 119.991 96.6258 120.451 98.0924C120.61 98.4509 120.746 98.8192 120.859 99.1951C121.08 100.366 121.177 100.429 122.21 99.9397C122.448 99.826 122.709 99.7635 122.931 99.6328C123.322 99.4054 123.549 98.6267 124.066 99.0302C124.327 99.2292 124.242 99.9283 124.259 100.406C123.951 101.959 123.451 103.467 122.772 104.896C122.647 105.067 122.386 105.181 122.335 105.357C121.886 106.96 120.791 107.727 119.191 107.903C119.02 107.903 118.89 108.239 118.731 108.403C118.519 108.641 118.261 108.833 117.973 108.968C117.685 109.103 117.373 109.179 117.055 109.191C116.737 109.202 116.42 109.15 116.123 109.036C115.826 108.922 115.555 108.75 115.326 108.529C115.054 108.199 114.746 107.901 114.406 107.642C113.771 107.284 113.01 106.693 112.352 107.073C111.694 107.454 110.451 107.125 110.212 108.295C110.042 109.125 109.424 108.625 109.015 108.71C108.504 108.818 108.544 108.415 108.493 108.051C108.408 107.483 108.209 106.914 108.084 106.306C107.903 105.499 107.585 105.425 106.694 105.613C104.707 106.033 103.334 107.466 101.717 108.494C101.376 108.71 101.053 108.943 100.706 109.148C100.36 109.353 100.303 109.682 100.61 109.967C100.803 110.143 100.848 110.495 101.382 110.177C102.32 109.531 103.427 109.177 104.566 109.159C104.899 109.158 105.228 109.238 105.525 109.393C105.871 109.614 106.257 110.006 105.752 110.393C105.093 110.893 105.071 111.53 105.093 112.263C105.127 113.559 105.36 113.735 106.762 113.229C108.164 112.723 109.56 112.093 110.979 111.592C112.03 111.146 113.152 110.894 114.293 110.848C114.747 110.848 114.957 110.995 114.86 111.45C114.753 112.178 115.184 113.008 114.457 113.639C114.389 113.701 114.457 114.071 114.588 114.207C115.683 115.27 115.82 116.629 115.689 118.004C115.576 119.141 116.007 120.164 116.137 121.244C116.268 122.324 115.916 123.421 116.518 124.501C116.79 124.99 116.518 125.763 116.58 126.394C116.642 126.911 116.994 127.423 116.966 127.923C116.807 130.35 117.67 132.595 118.328 134.835C118.896 136.66 119.338 138.524 119.9 140.349C120.575 142.554 121.2 144.794 121.807 147.028C122.306 148.877 122.83 150.719 123.379 152.553C123.867 154.207 123.799 156.003 124.65 157.566C124.667 157.637 124.667 157.711 124.65 157.782C124.514 159.874 125.411 161.892 125.065 163.995C125.01 164.225 124.872 164.428 124.679 164.563C124.599 164.62 124.264 164.455 124.179 164.313C123.226 162.648 122.448 160.948 123.237 158.976C123.282 158.851 123.402 158.657 123.362 158.618C122.647 157.896 122.023 156.839 121.149 156.566C119.281 155.969 118.407 156.566 117.499 158.322C117.308 158.669 117.14 159.028 116.994 159.396C116.62 160.482 115.859 160.778 114.724 160.778C112.528 160.778 110.479 160.164 108.368 159.692C106.342 159.237 104.56 158.197 102.556 157.742C101.831 157.564 101.177 157.167 100.684 156.605C99.5663 155.433 98.149 154.589 96.5861 154.167C94.9233 153.661 93.2434 154.48 93.181 156.134C93.1129 157.703 92.8575 159.311 93.5385 160.869C94.0209 161.954 94.3388 162.381 95.3149 162.005C97.375 161.181 99.4748 161.699 101.558 161.681C102.375 161.681 103.345 162.307 103.981 162.921C105.173 164.057 106.575 165.052 107.341 166.615C107.544 166.886 107.842 167.071 108.175 167.133C108.47 167.207 108.918 167.28 108.907 166.706C108.907 166.564 108.85 166.377 108.907 166.286C109.327 165.717 109.27 164.723 110.184 164.615C111.359 164.472 112.534 164.529 113.413 165.513C113.532 165.643 113.635 165.99 113.561 166.081C112.59 167.121 113.22 168.196 113.623 169.133C113.906 169.901 114.037 170.715 114.009 171.532C113.97 171.771 113.98 172.015 114.039 172.25C114.097 172.484 114.203 172.704 114.35 172.896C114.719 173.306 114.162 173.641 113.856 173.863C113.788 173.914 113.351 173.55 113.175 173.294C113.073 173.152 113.175 172.879 113.147 172.669C113.109 172.542 113.054 172.422 112.982 172.311C112.88 172.391 112.778 172.459 112.681 172.538C112.621 172.578 112.57 172.63 112.534 172.692C111.909 173.829 112.42 176.716 113.47 177.37C114.338 177.91 114.389 178.859 114.843 179.604C114.877 179.661 114.736 179.911 114.65 179.922C114.369 179.942 114.086 179.942 113.805 179.922C113.805 179.774 113.805 179.626 113.805 179.479C113.805 179.234 113.862 178.99 113.896 178.751C112.988 179.075 113.419 177.694 112.624 177.768C112.081 177.833 111.529 177.757 111.024 177.546C109.503 176.796 108.918 175.443 108.879 173.8C108.834 173.57 108.751 173.35 108.635 173.146C108.436 173.345 108.158 173.516 108.067 173.76C108.018 174.039 108.018 174.323 108.067 174.602L108.09 177.171Z" fill="white"/>
<path d="M92.5681 186.327C94.3728 186.674 96.2967 185.651 98.3398 185.873C99.7983 186.032 100.042 186.1 99.9799 187.578C99.9459 188.374 100.275 189.192 99.6337 190.005C99.3216 190.397 99.4692 191.267 99.6337 191.87C99.6946 192.221 99.8475 192.55 100.077 192.822C100.306 193.095 100.604 193.302 100.939 193.421C101.631 193.66 102.403 193.518 103.067 193.961C103.226 194.069 103.737 193.859 103.958 193.654C105.411 192.313 106.75 190.943 105.661 188.675C105.626 188.417 105.655 188.155 105.745 187.911C105.835 187.668 105.983 187.45 106.177 187.277C107.847 186.003 109.916 185.37 112.011 185.492C112.153 185.492 112.426 185.952 112.369 186.06C111.87 186.975 112.034 188.021 111.722 188.988C111.415 189.845 111.383 190.777 111.631 191.654C111.831 192.054 112.126 192.399 112.49 192.659C112.854 192.919 113.276 193.085 113.72 193.143C114.389 193.274 115.422 192.62 115.791 191.835C116.245 190.892 116.648 189.92 117.074 188.959C116.546 187.362 118.09 187.209 118.822 186.543C118.957 186.432 119.118 186.358 119.29 186.327C119.461 186.296 119.638 186.31 119.803 186.367C119.968 186.424 120.116 186.522 120.232 186.653C120.349 186.783 120.43 186.941 120.468 187.112C120.541 187.373 120.434 187.68 120.468 187.959C120.768 189.38 121.234 189.755 122.675 189.766C123.317 189.766 123.952 189.766 124.593 189.766C125.161 189.766 125.893 189.602 126.217 189.886C126.54 190.17 126.324 190.932 126.427 191.472C126.744 193.234 126.994 195.047 127.738 196.673C128.007 197.22 128.136 197.825 128.112 198.435C128.056 199.511 128.34 200.577 128.924 201.482C129.179 201.947 129.326 202.464 129.355 202.994C129.388 203.38 129.334 203.768 129.196 204.13C128.328 204.159 128.061 205.5 127.005 205.074C126.829 205 126.574 205.017 126.438 204.898C125.694 204.147 124.786 203.477 124.31 202.584C123.866 201.548 123.564 200.456 123.413 199.339C123.22 198.418 123.322 197.372 122.919 196.565C122.405 195.744 121.747 195.022 120.978 194.433C120.7 194.172 119.667 194.626 119.594 195.075C119.367 196.462 118.686 197.696 118.345 199.026C118.215 199.493 118.181 199.981 118.244 200.462C118.308 200.943 118.467 201.405 118.714 201.823C119.089 202.445 119.428 203.088 119.73 203.75C120.297 204.966 120.121 205.273 118.941 205.938C117.941 206.506 116.811 206.805 115.661 206.805C114.511 206.805 113.38 206.506 112.38 205.938C111.875 205.62 111.784 205.495 112.102 205.074C112.558 204.394 113.068 203.754 113.629 203.158C114.14 202.681 114.038 202.152 114.02 201.612C113.998 201.525 113.954 201.444 113.894 201.377C113.834 201.31 113.759 201.258 113.674 201.226C112.176 201.061 110.678 200.856 109.174 200.805C107.67 200.754 107.034 201.374 106.807 202.874C106.559 204.559 105.705 206.095 104.407 207.194C103.872 207.577 103.269 207.853 102.63 208.007C102.46 208.058 102.142 207.814 101.955 207.638C101.433 207.16 100.967 206.614 100.44 206.148C99.9118 205.682 99.5429 205.802 99.14 206.541C98.3852 207.927 97.6644 208.041 96.5124 206.887C95.1068 205.504 93.5202 204.319 91.7962 203.363C91.5152 203.226 91.289 202.997 91.155 202.714C91.0209 202.431 90.9869 202.11 91.0585 201.806C91.1379 201.192 91.5125 200.976 92.097 200.748C93.3158 200.255 94.4893 199.655 95.6043 198.958C96.0754 198.668 96.5407 198.469 96.8983 198.804C97.2558 199.14 97.6758 199.043 98.0731 199.077C99.0415 199.1 100.001 198.883 100.865 198.446C101.172 198.309 101.505 198.237 101.841 198.236C103.3 198.105 103.391 197.957 103.419 196.434C103.419 195.718 103.067 195.792 102.556 195.633C100.922 195.121 99.2705 195.252 97.6134 195.252C97.3741 195.289 97.1291 195.265 96.9017 195.182C96.6743 195.098 96.472 194.958 96.3137 194.774C96.2387 194.656 96.1381 194.555 96.0195 194.481C95.9008 194.406 95.767 194.359 95.6278 194.342C95.4886 194.326 95.3476 194.341 95.2149 194.386C95.0822 194.431 94.9613 194.506 94.8609 194.604C94.4157 194.883 93.9263 195.085 93.4137 195.201C93.016 195.346 92.5798 195.346 92.1821 195.201C91.9495 195.053 91.9608 194.484 91.9097 194.092C91.7622 192.842 91.416 191.676 90.3264 190.92C89.9928 190.691 89.5959 190.572 89.1913 190.579C87.1255 190.699 85.4059 192.853 85.9961 194.797C86.2004 195.479 87.0744 195.934 87.6533 196.502C87.693 196.536 87.8009 196.502 87.8576 196.502C89.2821 197.27 89.2821 197.292 87.9427 198.207C87.5455 198.48 87.1198 198.725 87.1993 199.344C87.1846 199.546 87.1203 199.742 87.012 199.913C86.3423 201.396 85.7635 201.578 84.39 200.714C84.2141 200.601 84.1006 200.39 83.9304 200.271C83.0223 199.64 82.381 199.799 82.1427 200.896C81.9837 201.641 81.7511 202.067 81.0076 202.033C80.6445 201.951 80.3142 201.763 80.0592 201.491C79.8043 201.219 79.6365 200.878 79.5774 200.51C79.4964 199.423 79.6917 198.334 80.145 197.343C81.6432 194.352 83.4707 191.538 85.5932 188.954C85.6386 188.902 85.7237 188.863 85.7408 188.8C85.8684 188.364 86.0859 187.96 86.3792 187.613C86.6724 187.267 87.0349 186.986 87.4433 186.788C88.4024 186.367 89.5602 186.396 90.6328 186.276C91.2003 186.276 91.7735 186.327 92.5681 186.327Z" fill="white"/>
<path d="M116.041 18.4622C116.228 16.7569 116.398 15.0517 116.608 13.3464C116.696 13.0295 116.836 12.7297 117.023 12.4597C117.301 11.8912 117.885 11.7321 118.26 12.1868C118.658 12.6322 118.952 13.1602 119.122 13.7329C119.48 15.2335 119.69 16.7569 120.013 18.2803C120.042 18.392 120.097 18.4955 120.173 18.5824C120.248 18.6692 120.344 18.7371 120.45 18.7805C120.74 18.8203 121.137 18.9851 121.285 18.4508C121.529 17.5641 121.909 16.7114 122.108 15.8133C122.329 14.8243 122.142 13.6477 122.624 12.8462C123.192 11.8969 122.817 10.8795 123.316 9.91882C123.736 9.11167 123.35 7.91799 123.804 6.93462C123.883 6.73653 123.89 6.517 123.824 6.3144C123.757 6.1118 123.622 5.939 123.441 5.8262C123.111 5.55611 122.807 5.25541 122.533 4.9281C122.3 4.68062 122.153 4.36376 122.115 4.02537C122.077 3.68699 122.15 3.34545 122.323 3.05231C122.857 2.20537 123.402 1.34706 123.98 0.551268C124.417 -0.0683093 125.087 -0.193362 125.564 0.318216C126.438 1.25611 127.352 2.18263 127.266 3.66052C127.292 3.93154 127.249 4.20459 127.142 4.45478C127.035 4.70497 126.867 4.92435 126.653 5.09294C126.383 5.25888 126.172 5.50573 126.05 5.79852C125.928 6.09131 125.901 6.4152 125.972 6.72431C126.148 7.65651 125.66 8.62283 126.302 9.5664C126.784 10.2883 125.967 11.3797 126.784 12.1243C126.591 13.4487 127.283 14.6708 127.249 15.9782C127.198 16.401 127.198 16.8286 127.249 17.2514C127.294 17.3836 127.368 17.5037 127.467 17.6023C127.565 17.7009 127.685 17.7754 127.817 17.8199C127.964 17.8596 128.333 17.5641 128.384 17.3651C128.658 16.5401 128.831 15.6851 128.901 14.8186C128.905 12.8449 129.196 10.8824 129.763 8.9923C129.849 8.64504 129.849 8.2823 129.763 7.93504C129.725 7.62369 129.773 7.30772 129.902 7.0219C130.031 6.73608 130.237 6.49149 130.496 6.31504C130.762 6.07062 131.018 5.78073 131.37 6.09904C131.721 6.41736 132.005 6.55946 131.846 7.1222C131.239 9.2822 131.455 10.5725 132.136 13.2896C132.669 15.4154 133.271 17.5356 133.668 19.6956C133.879 20.8366 134.005 21.9919 134.043 23.1516C134.043 23.6575 133.963 23.8792 133.367 23.9076C132.567 23.9474 131.784 24.1918 130.989 24.2998C130.195 24.4078 129.412 24.2316 128.583 24.6693C127.976 24.9933 127.056 24.7432 126.279 24.7318C125.297 24.7318 124.497 24.9422 124.043 25.9653C123.85 26.3973 123.419 26.744 122.879 26.1586C121.966 25.1525 120.921 25.4822 119.86 25.9198C119.317 26.1611 118.745 26.3293 118.158 26.42C117.216 26.5337 117.278 26.4655 117.023 25.3457C116.41 23.1011 116.081 20.7887 116.041 18.4622Z" fill="white"/>
<path d="M127.669 180.462C127.669 180.814 127.669 181.167 127.669 181.525C127.669 182.139 127.38 182.196 126.869 181.911C125.734 181.275 124.633 181.65 123.578 182.133C123.22 182.304 122.965 182.702 122.624 182.912C120.973 183.98 120.922 183.992 119.117 183.332C118.478 183.108 117.895 182.749 117.405 182.28C116.916 181.812 116.532 181.244 116.279 180.615C116.139 180.095 116.199 179.541 116.45 179.064C117.207 177.544 117.567 175.856 117.494 174.158C117.494 172.942 117.8 171.725 117.874 170.503C117.948 169.281 117.823 168.087 117.874 166.882C117.898 166.589 118.003 166.308 118.175 166.07C118.348 165.832 118.583 165.646 118.854 165.533C119.125 165.419 119.422 165.382 119.712 165.425C120.003 165.469 120.276 165.592 120.502 165.78C121.54 166.621 122.505 167.076 123.788 166.32C124.032 166.178 124.401 166.251 124.73 166.752C125.371 167.746 124.701 168.98 125.519 169.844C126.086 172.589 126.654 175.335 127.221 178.08C127.386 178.865 127.601 179.643 127.789 180.422L127.669 180.462Z" fill="white"/>
<path d="M213.485 183.691C213.206 183.85 212.889 184.191 212.599 184.162C211.271 184.032 210.329 184.89 209.268 185.379C208.4 185.765 207.707 185.186 207.111 184.646C206.226 183.833 205.409 182.94 204.552 182.105C203.668 181.239 202.739 180.419 201.771 179.649C200.205 178.444 199.109 176.728 197.991 175.102C197.849 174.892 197.821 174.602 197.679 174.386C196.879 173.169 196.964 172.891 198.474 172.726C199.149 172.658 199.722 171.691 200.534 172.516C201.032 172.969 201.571 173.375 202.145 173.726C203.848 174.909 205.454 176.278 207.123 177.535C209.234 179.109 211.05 181.082 212.979 182.889C213.173 183.14 213.342 183.408 213.485 183.691Z" fill="white"/>
<path d="M131.914 49.0543C132.34 49.0543 132.766 49.0543 133.185 49.0543C133.753 49.0089 134.15 49.0543 134.077 49.799C134.077 50.0207 134.286 50.2708 134.428 50.4925C135.155 51.6293 135.217 52.4308 134.167 52.9139C132.425 53.7154 132.766 55.3013 132.351 56.62C132.249 56.9611 132.629 57.5011 131.92 57.5863C131.646 57.637 131.363 57.5819 131.129 57.4321C130.894 57.2823 130.724 57.049 130.654 56.7792C130.473 56.3579 130.332 55.9201 130.234 55.4718C129.988 53.7684 129.564 52.0956 128.969 50.4811C128.911 50.3173 128.894 50.1419 128.92 49.9702C128.946 49.7985 129.013 49.6357 129.116 49.4961C129.219 49.3564 129.355 49.2442 129.511 49.1692C129.668 49.0941 129.84 49.0586 130.013 49.0657C130.626 49.0259 131.284 49.0543 131.914 49.0543Z" fill="white"/>
<path d="M162.118 80.0675C161.998 80.3668 161.831 80.645 161.624 80.8917C160.654 81.9205 159.621 82.8869 158.645 83.91C158.281 84.2908 157.782 84.6887 157.407 84.3932C157.182 84.2199 156.999 83.9981 156.872 83.7442C156.744 83.4903 156.675 83.2109 156.67 82.9266C157.005 81.5283 157.073 80.0277 157.896 78.7772C158.09 78.4911 158.321 78.2312 158.582 78.0041C159.32 77.3391 160.228 76.8218 161.147 77.322C161.936 77.7483 162.214 78.6805 162.118 80.0675Z" fill="white"/>
<path d="M120.008 79.5556C120.008 78.0266 121.381 77.1739 122.908 77.7821C123.285 77.914 123.631 78.1231 123.924 78.396C124.128 78.612 124.343 79.1293 124.236 79.2828C123.708 80.0274 123.543 81.0221 122.59 81.4939C121.324 82.1135 120.376 81.7668 120.019 80.4026C119.981 80.1217 119.977 79.8373 120.008 79.5556Z" fill="white"/>
<path d="M3.07499 37.9194L3.7844 38.1582C3.65387 38.4481 3.53469 38.7266 3.37578 39.0279C3.28688 39.1275 3.17336 39.202 3.04662 39.2439C2.5973 39.516 2.12201 39.7426 1.62781 39.9203C0.494787 40.1291 -0.536 40.7113 -1.30062 41.5744C-1.45552 41.6993 -1.64233 41.778 -1.83977 41.8017C-2.35054 41.9325 -2.68538 41.654 -2.5662 41.1481C-2.44702 40.6422 -2.39027 40.1135 -2.0838 39.8862C-1.42584 39.4572 -0.721382 39.1044 0.016036 38.8346C0.191968 38.755 0.436004 38.8346 0.645988 38.8346C1.23054 38.7436 2.0875 39.1984 2.24641 38.0615C2.25776 37.999 2.74015 37.982 3.07499 37.9194Z" fill="white"/>
</g>
</svg>
