<svg width="300" height="64" viewBox="0 0 300 64" fill="none" xmlns="http://www.w3.org/2000/svg">
<path d="M134.227 45.0341C134.734 45.6322 135.361 46.1149 136.067 46.4504C136.478 46.1822 136.771 45.7635 136.884 45.2821C137.029 44.6294 136.364 44.4336 136.438 43.8234C137.539 43.7614 137.849 42.0905 139.479 42.4495C139.315 45.3702 137.31 47.4946 136.574 50.0009C136.028 50.2685 135.783 49.7137 135.441 49.7594C134.007 50.1706 132.771 51.0386 130.992 51.1659C132.061 49.6223 133.604 49.172 134.75 48.1865C133.713 46.8256 132.574 47.1291 131.199 47.8993C131.605 45.6639 133.436 44.7241 134.443 43.0924C132.858 43.0924 131.718 44.2802 130.369 44.2378C129.685 43.8266 129.371 43.3894 129.659 42.6486C130.379 42.0187 131.347 41.9959 132.225 41.725C133.103 41.4542 133.962 41.3987 134.74 41.0006C134.96 40.2859 134.598 39.6953 134.514 39.0426C134.117 38.5922 133.429 38.2953 133.655 37.3065C134.166 36.7818 134.465 36.0839 134.495 35.3485C134.359 34.8427 133.652 35.1266 133.475 34.6175C133.281 32.4572 134.973 30.522 136.884 30.7015C137.413 30.8288 137.381 31.4553 137.788 31.6479C140.332 32.0166 142.695 30.9397 145.148 30.6297C145.671 31.7327 145.113 32.1928 144.341 32.4017C143.159 32.728 141.946 32.9304 140.741 33.1816C140.419 33.2534 140.073 33.3187 139.605 33.4133C139.928 34.2553 139.686 35.045 139.437 35.7792C139.902 36.1676 140.228 35.9163 140.535 35.7597C140.893 35.0352 140.506 34.1867 141.074 33.5798C142.365 33.4688 142.475 33.5798 142.607 35.3289C142.93 35.5802 143.253 35.4562 143.602 35.2212C143.741 34.4152 143.001 33.1457 144.554 32.9206C145.377 33.4231 146.071 34.8786 146.168 36.2296C146.052 36.8039 145.413 36.8823 145.171 37.3359C144.965 38.0251 144.872 38.7439 144.896 39.4636C145.668 39.5406 146.447 39.4562 147.185 39.2155C148.018 39.0034 148.741 39.2841 149.422 39.705C150.023 40.0803 150.333 40.5927 149.942 41.3922C148.425 41.898 146.688 40.4132 145.239 41.7414C145.158 42.4985 146.165 42.8117 145.884 43.373C145.661 44.1562 144.593 44.2998 145.135 45.2527C146.104 45.5791 147.072 45.1091 148.041 44.8154C149.106 45.3049 150.091 45.8303 149.878 47.4098C148.412 48.3431 146.598 47.5109 145.013 48.2615C144.632 50.1836 144.654 52.2852 143.159 54.1355C142.152 52.2722 142.746 50.3272 142.414 48.5487C141.045 48.0037 139.925 49.2797 138.672 48.9338C138.114 48.5846 137.978 48.0918 138.101 47.413C138.54 46.8387 139.46 46.496 139.34 45.5268C140.044 45.2005 140.522 45.4387 141.051 45.7846C141.726 46.2219 142.243 46.111 142.265 45.2136C141.942 44.6849 141.345 44.9819 141.193 44.7991C140.991 44.6037 140.835 44.3652 140.736 44.101C140.636 43.8368 140.596 43.5536 140.619 43.2719C141.039 42.4332 141.807 42.8509 142.252 42.4952C142.533 42.1689 142.32 41.9339 142.117 41.6467C141.206 41.4672 140.299 41.7805 139.386 41.8915C138.472 42.0024 137.662 42.27 136.803 42.4658L137.074 42.7628L134.227 45.0341ZM137.455 36.2851C137.709 35.3836 137.865 34.4567 137.92 33.521C137.242 33.3937 136.648 33.0348 136.112 33.6516C136.338 34.0856 136.858 34.2585 136.809 34.8068C136.842 35.3126 136.261 35.7172 136.487 36.2818C136.774 36.507 137.052 36.4319 137.465 36.2883L137.455 36.2851ZM142.391 39.5876C143.121 39.6855 143.392 39.3624 143.44 38.7815C143.476 38.3116 143.789 37.8449 143.482 37.3718C143.072 37.1498 142.724 37.2902 142.362 37.4925C142.146 38.1772 142.16 38.9148 142.401 39.5908L142.391 39.5876ZM140.683 39.754C140.716 39.0589 140.88 38.3899 140.528 37.796C140.321 37.7474 140.104 37.7642 139.907 37.8441C139.709 37.9241 139.541 38.0633 139.424 38.2431C139.393 38.821 139.531 39.3955 139.821 39.8943C139.966 39.9509 140.122 39.968 140.275 39.944C140.428 39.9199 140.573 39.8555 140.693 39.7573L140.683 39.754ZM137.423 38.3573C137.236 38.3096 137.038 38.3209 136.858 38.3897C136.677 38.4586 136.522 38.5816 136.412 38.7424C136.361 39.3004 136.219 39.8911 136.696 40.374C136.882 40.447 137.087 40.4545 137.277 40.3953C137.468 40.3361 137.633 40.2136 137.746 40.0477C137.807 39.4864 137.923 38.9088 137.432 38.3605L137.423 38.3573Z" fill="#DF0000"/>
<path d="M82.0281 49.9062C81.9054 49.1002 82.3509 48.7314 82.7254 48.3659C83.6358 47.5293 84.6276 46.788 85.6857 46.1534C86.1044 45.9404 86.4817 45.653 86.7995 45.3049C85.0853 43.7646 84.4428 41.7153 84.091 39.5386C83.9492 38.823 83.9971 38.0822 84.2298 37.3913C84.3493 36.9727 84.619 36.6142 84.9862 36.386C85.3535 36.1579 85.7917 36.0765 86.2152 36.1578C87.0109 36.2865 87.8245 36.2465 88.6041 36.0403C88.7053 35.9441 88.7687 35.8143 88.783 35.6747C88.7972 35.5351 88.7612 35.395 88.6816 35.2799C87.513 34.9895 86.2313 34.7252 86.509 32.9956C87.1126 32.3919 87.1126 32.3919 88.843 32.1243C89.9761 30.0651 90.3958 29.9574 92.0293 31.3803C93.1915 31.0539 94.3989 30.7863 95.348 32.1178C94.6733 33.7494 93.0108 34.0758 91.7259 34.859C91.6604 34.9581 91.6305 35.0769 91.641 35.1957C91.6516 35.3144 91.7021 35.4259 91.784 35.5116C93.311 35.3615 94.8638 35.6585 96.5328 35.5116C97.2011 37.9135 96.394 39.754 94.9574 41.4738C94.8089 41.7773 95.0187 42.1786 94.8573 42.5409C94.6507 43.1022 94.1051 43.0467 93.6661 43.1935C93.227 43.3404 92.7945 43.3665 92.3909 43.7026C92.4103 44.1986 92.83 44.4271 93.1399 44.7077C94.4473 45.8988 96.0453 46.6657 97.4981 47.6056C98.0469 47.958 98.6151 48.2778 99.1639 48.627C99.5125 48.8489 99.8644 49.0839 99.8418 49.5799C99.251 50.35 99.1962 50.3533 97.7499 49.7365C97.3496 49.7692 97.2108 50.2619 96.6297 50.3207C94.9348 49.7431 93.3691 48.5617 91.7291 47.5729C91.3579 47.8732 91.558 48.2028 91.5516 48.4867C91.5322 49.3156 91.5742 50.1444 91.2965 50.9472C91.2259 51.288 91.0627 51.6022 90.8252 51.8544C89.8761 52.6148 88.8882 53.336 87.8616 54.1192C87.1966 53.1728 86.4508 52.4157 86.4379 51.2964C87.0836 50.8656 87.7292 51.2964 88.5105 50.9701C89.408 49.5864 88.8333 47.9058 89.0206 46.0751C87.7293 46.8093 86.6284 47.4522 85.5114 48.0592C84.3944 48.6662 83.2064 49.1589 82.0281 49.9062ZM88.7559 38.5074C86.609 38.6151 85.7858 40.0444 86.8189 41.8393C86.99 42.1395 86.9093 42.5246 87.2063 42.7856C87.407 42.7869 87.6076 42.7749 87.8067 42.7497C88.1281 42.7239 88.441 42.6329 88.7268 42.4821C88.8863 42.1932 88.9313 41.8537 88.8527 41.5325C87.5033 40.919 87.4871 40.8798 87.613 39.8127C87.9197 39.3918 88.4524 39.5843 88.8204 39.3559C88.9064 39.228 88.9468 39.0744 88.9351 38.9202C88.9234 38.766 88.8602 38.6205 88.7559 38.5074ZM91.1674 41.4705C92.6363 41.9241 93.8888 39.7442 94.4183 37.3032C93.4207 37.1139 92.5491 37.2641 91.2804 37.858C91.2356 37.9584 91.2233 38.0705 91.2453 38.1783C91.2674 38.2862 91.3226 38.3842 91.4031 38.4584C91.6799 38.5398 91.9671 38.5794 92.2553 38.5759C92.4215 38.5722 92.5855 38.6151 92.7291 38.6997C92.8726 38.7844 92.9902 38.9076 93.0689 39.0556C93.0915 39.9465 92.4619 40.361 91.7259 40.7199C91.3934 40.8864 90.9801 40.9614 91.1674 41.4836V41.4705Z" fill="#DF0000"/>
<path d="M79.2553 51.7304L78.6096 52.2199C78.5322 52.5136 78.4482 52.84 78.3546 53.1989C77.7477 53.2218 77.4927 52.7877 77.2279 52.4092C76.3401 51.1365 76.14 49.6713 76.1335 48.1669C76.1142 44.6066 76.3305 41.0561 76.5371 37.5055C76.5548 36.3997 76.6552 35.2968 76.8373 34.2063C76.9587 33.489 77.2342 32.8073 77.6444 32.2091C78.106 31.5793 78.7 31.2301 79.5362 31.4814L80.1011 32.2483C80.9317 32.4057 81.7896 32.3161 82.5708 31.9905C83.6458 31.6152 84.0364 31.7425 84.7919 32.6954C84.9178 33.521 84.4174 34.1051 83.9428 34.6925C83.2294 35.5704 82.4255 36.3764 81.796 37.4501C82.5643 37.6752 83.1809 38.0636 83.4101 38.8598C83.733 40.0085 83.8589 41.1703 83.4392 42.3222C82.9027 43.7027 81.8774 44.8322 80.5628 45.4909C79.4684 45.1156 79.2521 44.7599 79.378 43.6374C79.5975 43.3665 79.93 43.3991 80.2206 43.3339C81.3214 43.0826 81.7766 42.5833 81.938 41.4411C82.0639 40.5763 81.8735 39.6398 81.2698 38.1386C80.6758 38.1745 80.5273 38.9381 79.8074 39.0067C79.6782 38.0277 80.114 37.1988 80.4207 36.3699C80.7274 35.541 81.1632 34.7611 81.6539 33.7201C81.0329 34.1084 80.3767 34.4362 79.6944 34.6991C79.0293 36.148 78.8421 37.7274 78.7743 39.3102C78.6097 43.1087 78.5483 46.9105 79.3037 50.6698C79.3877 51.0208 79.3709 51.3887 79.2553 51.7304Z" fill="#DF0000"/>
<path d="M195.906 39.5647C196.326 39.9922 196.794 39.8715 197.265 39.9498C197.85 39.8062 198.347 39.0361 199.202 39.5973C199.796 40.25 200.194 41.0495 199.758 42.0644C198.654 42.7954 197.637 41.8686 196.688 42.1232C196.339 41.5782 196.823 41.3791 196.862 40.9941C196.32 40.6057 195.684 40.6155 195.061 40.7101C192 41.1735 188.927 41.6141 185.882 42.1623C183.655 42.5605 183.093 43.0989 183.019 45.2233C182.99 46.0849 182.641 46.7473 181.521 46.9921C180.875 45.1777 181.198 43.5297 181.96 41.9828C182.929 41.2486 184.078 41.601 185.082 41.0691C184.149 38.0734 183.981 35.0058 183.845 31.9318C185.895 31.674 186.631 31.8763 187.074 32.715C186.964 33.1131 186.596 33.1784 186.289 33.3219C185.983 33.4655 185.644 33.6026 185.737 34.0431C186.154 34.5522 186.706 33.942 187.129 34.2585C187.274 34.3929 187.375 34.569 187.419 34.7631C187.463 34.9573 187.447 35.1604 187.374 35.3452C187.096 35.8935 186.373 35.7629 185.989 36.3242C185.921 36.4658 185.902 36.6262 185.935 36.7799C185.968 36.9337 186.05 37.0719 186.17 37.1727C186.625 37.2184 187.019 36.9932 187.461 36.8464C187.884 36.0305 188.317 35.2147 188.788 34.3042C187.926 33.7658 187.203 33.1359 187.745 31.9938C188.507 31.7914 188.985 32.4898 189.682 32.4017C190.215 32.2385 190.254 31.6707 190.489 31.2563C190.614 30.9817 190.822 30.7545 191.084 30.6072C191.345 30.46 191.645 30.4005 191.942 30.4372C192.099 30.4422 192.253 30.4804 192.394 30.5492C192.535 30.618 192.661 30.716 192.762 30.8368C192.864 30.9576 192.939 31.0986 192.984 31.2506C193.028 31.4027 193.041 31.5624 193.02 31.7196C192.749 32.5714 191.693 32.4572 191.387 33.2306C191.551 34.1704 192.407 33.9159 192.962 34.1019C193.492 35.0385 193.343 35.7336 192.42 36.259C192.144 36.3936 191.901 36.5866 191.706 36.8247C191.511 37.0629 191.369 37.3408 191.29 37.6393C191.735 38.3638 192.52 38.8892 192.678 39.6952C192.864 39.7811 193.065 39.8275 193.27 39.8314C193.474 39.8354 193.677 39.7968 193.866 39.7181C194.289 39.3591 194.215 38.9414 194.308 38.6281C194.063 38.0701 193.34 37.9428 193.408 37.2543C193.75 36.5788 195.154 37.1466 194.986 35.8086C194.757 35.3191 193.898 35.6715 193.718 34.7023C193.718 33.8767 194.906 34.376 195.332 33.7886C195.464 32.8357 193.776 32.9108 194.279 31.6609C195.122 31.1943 196.087 30.819 197.111 31.0082C197.918 31.7099 197.843 32.5061 197.64 33.2926C197.107 35.4366 196.923 37.6296 195.906 39.5647ZM189.127 38.0864C188.885 37.7046 188.614 37.5349 188.423 37.6752C187.69 38.217 186.999 38.8174 186.299 39.3918C186.238 39.8323 186.083 40.2729 186.506 40.6286C187.07 40.6618 187.635 40.5966 188.178 40.436C188.346 39.6235 189.007 38.9675 189.14 38.0864H189.127ZM190.341 36.5886C190.609 36.1708 191.025 35.8935 191.057 35.3452C190.641 35.1723 190.247 34.9667 189.792 35.0711C189.511 35.3028 189.272 35.5378 189.343 35.9359C189.459 36.1082 189.608 36.255 189.782 36.3672C189.956 36.4794 190.15 36.5547 190.354 36.5886H190.341ZM190.225 39.0361C189.857 39.382 189.614 39.6887 189.676 40.1782C190.241 40.2924 190.699 40.3185 191.09 39.8519C191.019 39.6589 190.905 39.485 190.758 39.3435C190.61 39.2021 190.432 39.0969 190.237 39.0361H190.225Z" fill="#DF0000"/>
<path d="M186.322 46.1795C187.584 45.5758 188.979 45.9478 190.228 45.5268C190.274 45.2738 190.262 45.0134 190.194 44.7656C190.125 44.5179 190.001 44.2894 189.831 44.0975C189.16 43.9572 188.495 44.525 187.814 44.1334C187.326 43.5623 187.536 43.05 187.978 42.5017C189.783 41.5227 192.02 42.7041 193.608 41.3563C195.042 42.0971 195.042 42.0971 195.032 43.3143C194.286 43.8919 193.034 43.918 192.772 45.2397C194.299 45.5986 195.839 44.8579 197.253 45.4355C197.442 45.6443 197.575 45.8981 197.641 46.1732C197.706 46.4482 197.702 46.7356 197.628 47.0084C196.352 47.8634 194.677 47.1846 193.195 47.958C193.195 49.4722 193.166 51.0778 191.797 52.2004C190.8 53.026 189.76 53.7733 188.443 53.956C187.755 54.0474 187.219 53.6917 186.729 53.2577C186.677 52.3603 187.374 52.5561 187.846 52.4484C189.876 51.998 190.9 50.7155 190.751 48.7837C190.712 48.5862 190.65 48.3944 190.564 48.2126C189.679 48.193 188.885 48.4573 188.072 48.5976C187.381 48.7184 186.651 48.7445 186.199 48.069C185.747 47.3935 185.918 46.793 186.322 46.1795ZM192.624 42.864C192.004 42.8966 191.503 42.9716 191.097 43.5166C191.303 43.8886 191.481 44.2868 192.114 44.215C192.304 43.8593 192.688 43.5852 192.624 42.864Z" fill="#DF0000"/>
<path d="M215.16 44.8546L214.043 45.0634C213.798 44.8886 213.593 44.6611 213.445 44.397C213.296 44.133 213.207 43.839 213.184 43.5362C213.236 43.3157 213.352 43.1159 213.517 42.9629C213.682 42.8098 213.889 42.7105 214.111 42.6779C216.419 42.1939 218.678 41.4936 220.858 40.5861C221.691 40.2435 222.498 40.1945 222.918 41.3073C222.414 42.4789 220.981 42.6355 220.397 43.7385C220.635 44.3063 221.52 44.1497 221.688 45.1613C221.752 45.8532 220.826 46.2317 220.367 46.966C220.212 47.945 220.083 48.9664 220.671 49.9584C222.201 50.3158 223.805 50.1553 225.236 49.5016C225.681 48.8195 225.262 47.9156 225.959 47.3804C226.382 47.7459 226.188 48.3235 226.375 48.627C226.579 49.0414 226.914 49.0675 227.14 49.2438C228.051 49.9617 228.031 51.0386 227.086 51.7402C226.506 52.1296 225.841 52.3714 225.149 52.4451C223.788 52.6652 222.404 52.6915 221.036 52.5234C219.057 52.2852 218.434 51.502 218.356 49.4787C218.305 48.1375 218.614 46.8387 218.866 45.2364C217.485 46.483 216.306 47.5207 214.892 48.2191C213.478 48.9174 212.771 50.4708 211.222 50.9831C212.361 48.8 213.588 46.7212 215.399 45.0471L215.16 44.8546Z" fill="#DF0000"/>
<path d="M213.146 34.934C212.384 35.8412 211.422 36.5657 210.767 37.5675C210.767 37.6752 210.738 37.685 210.705 37.5969C210.705 37.5969 210.751 37.5578 210.773 37.5349C211.096 37.6263 211.461 37.375 211.787 37.6393C213.446 40.9647 212.794 43.3175 209.727 45.07C209.201 45.1581 209.111 44.4173 208.636 44.4728C208.569 44.5085 208.515 44.5645 208.48 44.6329C208.446 44.7013 208.434 44.7788 208.446 44.8546C208.404 46.6005 208.701 48.3235 208.807 50.0759C208.885 51.3127 208.775 51.675 207.99 52.729C207.086 52.3244 206.838 51.4628 206.605 50.6242C206.06 48.6303 206.221 46.5711 206.199 44.5413C206.195 41.9055 206.357 39.2722 206.683 36.6571C206.941 34.3727 207.422 33.3024 208.565 32.3136C209.801 31.873 210.211 33.5275 211.296 33.4035C211.851 33.3285 211.971 32.6497 212.51 32.5844C213.627 33.2371 213.65 33.3219 213.12 34.983L213.146 34.934ZM210.537 34.5C208.794 35.6291 207.871 40.3283 208.675 43.311C209.743 43.1054 210.66 42.6975 210.886 41.4933C211.135 40.1619 210.596 39.0067 209.566 38.4552C209.553 37.1303 210.228 35.9783 210.537 34.5Z" fill="#DF0000"/>
<path d="M213.12 34.9666C213.27 34.7988 213.464 34.6785 213.681 34.6206C213.897 34.5627 214.125 34.5695 214.337 34.6403C215.667 35.1755 216.949 34.6664 218.327 34.5979C218.327 33.472 217.088 32.7019 217.549 31.5532C219.409 31.0539 220.132 31.5173 221.317 33.893C222.001 34.1149 222.653 33.7527 223.328 33.7266C224.003 33.7005 224.597 33.4753 225.31 33.9093C225.51 34.8296 226.437 35.6258 226.127 36.8724C224.739 37.2901 223.202 36.768 221.969 37.7111C221.681 38.6444 221.085 39.4497 220.281 39.993C219.477 40.5363 218.513 40.7847 217.549 40.6971C216.671 40.6122 216.258 40.0738 216.116 39.0654C217.73 37.9036 219.577 37.3195 221.765 37.1074C222.228 36.7319 222.622 36.278 222.931 35.7662C221.772 35.2016 220.994 36.0631 220.154 36.4188C218.124 35.541 216.226 36.1741 215.031 38.0896C214.889 38.5498 215.354 38.9283 215.196 39.395C214.55 40.2239 214.55 40.2239 213.543 40.5828C212.662 38.7521 212.817 36.8561 213.146 34.9438L213.12 34.9666Z" fill="#DF0000"/>
<path d="M210.773 37.5284C210.75 37.5512 210.699 37.5806 210.705 37.5904C210.737 37.6785 210.763 37.6687 210.766 37.561L210.773 37.5284Z" fill="#DF0000"/>
<path d="M108.539 35.9685C108.432 36.3188 108.42 36.6919 108.504 37.0487C108.61 37.2314 108.794 37.238 108.949 37.2967C110.341 37.8058 110.618 38.4128 110.105 39.8356C109.763 40.7721 109.062 41.4379 108.388 42.1493C108.24 42.7481 108.268 43.3774 108.468 43.9604C108.943 43.8886 109.179 43.4905 109.556 43.3502C109.934 43.2099 110.357 43.1348 110.709 43.4579C111.061 43.7809 111.003 44.1334 110.922 44.5152C110.835 44.9249 110.62 45.2955 110.308 45.5725C108.823 46.8778 107.348 48.2289 105.821 49.4885C105.014 50.1575 104.207 50.1053 103.368 49.5081C102.864 49.1524 102.796 49.0088 102.751 48.1179C103.677 47.2401 104.907 46.6494 105.84 45.6476C105.967 44.7794 105.939 43.8954 105.76 43.0369C104.433 42.9488 103.852 41.8784 103.029 40.9418C103.752 39.5843 105.23 39.1601 106.312 38.1582C106.397 37.4152 106.417 36.666 106.37 35.9196C105.25 35.3191 104.004 34.8492 103.539 33.5047C103.687 33.3089 103.745 33.1588 103.862 33.1033C105.378 32.3109 106.96 31.6556 108.591 31.1453C108.824 31.0919 109.064 31.0808 109.301 31.1127C110.799 31.2465 111.374 32.3364 110.651 33.6711C110.144 34.611 109.369 35.293 108.539 35.9685Z" fill="#DF0000"/>
<path d="M109.879 42.5017C109.476 41.6304 110.002 41.0234 110.321 40.423C111.797 37.6589 113.408 34.9732 115.128 32.356C115.616 31.6152 115.984 30.7733 116.704 30.2316C117.075 30.1206 117.443 30.1043 117.672 30.4208C118.224 31.2138 119.099 31.5858 119.813 32.1635C122.095 34.0072 123.854 36.3699 125.946 38.403C126.398 38.8435 126.915 39.2743 127.193 39.9791C126.395 40.6024 125.32 40.077 124.684 40.7003C123.945 40.7003 123.499 40.3218 123.07 39.9171C121.456 38.4255 119.974 36.7942 118.641 35.0417C117.543 33.5602 116.617 33.5667 115.506 35.0678C113.992 37.1172 112.555 39.2188 111.235 41.3987C110.928 41.8882 110.651 42.4234 109.879 42.5017Z" fill="#DF0000"/>
<path d="M118.408 48.4704C118.75 48.8554 119.102 49.2242 119.425 49.6191C119.957 50.2553 120.233 51.071 120.197 51.9034C120.174 52.5561 120.019 53.15 119.315 53.3849C118.67 53.6036 118.14 53.385 117.701 52.6376C116.853 51.2197 116.082 49.7567 115.39 48.255C115.2 47.978 115.089 47.6543 115.067 47.3184C115.803 46.4504 116.581 47.2205 117.398 47.3804C118.066 46.1893 118.366 44.897 118.721 43.3273C117.017 44.5609 115.474 45.6117 113.704 46.1599C112.616 45.7585 112.29 45.0667 112.413 43.4611C112.736 42.8346 113.311 42.7497 113.895 42.7334C115.513 42.6368 117.109 42.3004 118.631 41.7348L119.041 41.0299C119.298 40.8675 119.591 40.7725 119.894 40.7537C120.197 40.7349 120.499 40.7928 120.774 40.9223C121.636 41.229 121.966 41.7348 121.878 42.6616C121.791 43.5884 121.391 44.3096 120.984 45.0667C120.467 46.0417 119.806 46.9318 119.025 47.7067C118.762 47.9083 118.551 48.17 118.408 48.4704Z" fill="#DF0000"/>
<path d="M114.557 37.8711L115.977 36.7844C116.135 36.6791 116.315 36.6109 116.502 36.5849C116.69 36.559 116.881 36.5758 117.062 36.6342C117.6 36.7364 118.12 36.9155 118.608 37.1662C119.489 37.6459 119.706 38.0864 119.47 39.0034C119.263 39.816 118.789 40.1782 117.895 40.1717C116.862 40.1255 115.869 39.7586 115.05 39.1209C114.852 38.9885 114.698 38.7977 114.61 38.5743C114.521 38.3509 114.503 38.1054 114.557 37.8711Z" fill="#DF0000"/>
<path d="M159.382 40.7917C158.658 40.6677 158.358 41.2975 157.829 41.2094C155.924 39.5778 155.324 34.3564 156.86 32.4474C157.971 32.046 158.633 33.0348 159.559 33.4003C160.281 33.4442 160.997 33.2495 161.599 32.8455C162.461 32.3038 163.268 32.3593 163.956 33.0707C164.511 34.1215 163.808 35.0483 163.775 35.975C166.297 38.1256 166.933 39.8486 165.712 41.5749C164.124 40.6122 163.985 38.8207 163.339 37.2673C162.442 37.548 162.193 38.3083 161.9 39.0034C161.435 39.3297 160.989 39.6137 160.457 39.9824C160.518 40.5861 160.586 41.2062 160.65 41.8327C161.296 42.1591 162.129 41.5358 162.603 42.3581C162.445 43.4709 161.277 43.5688 160.666 44.2802C160.479 44.8308 160.47 45.4276 160.641 45.9837C162.055 46.5385 162.055 46.5385 162.652 47.4685C160.305 48.392 158.31 49.9323 156.131 51.1039C154.978 50.7449 154.516 49.9747 154.465 49.1198C154.571 48.3594 155.194 48.3496 155.382 47.8732C155.343 46.5058 154.529 45.145 155.039 43.7679C155.575 43.2425 156.008 43.5101 156.382 43.6994C157.154 44.8644 156.357 46.2513 157.073 47.3445C157.784 47.5729 158.339 47.2792 159.01 46.855C159.097 44.8513 159.072 42.7987 159.382 40.7917ZM158.904 36.631C158.8 37.2836 158.739 37.8058 159.317 38.1354C160.515 37.4827 160.531 37.4566 160.608 36.0207L158.904 36.631Z" fill="#DF0000"/>
<path d="M163.591 41.8948C164.963 42.3745 166.029 41.5064 167.142 41.8948C167.652 43.1381 167.652 43.1381 165.486 44.0388C165.276 44.2933 165.293 44.5707 165.486 44.9688C166.313 45.1679 167.746 44.3488 167.946 46.0425C167.517 47.0639 166.381 46.8452 165.725 47.4294C165.729 47.9677 165.865 48.4967 166.119 48.9697C167.788 48.8783 169.47 48.5063 171.284 48.6433C172.12 46.9627 172.275 45.2201 172.34 43.422C171.778 43.1577 171.323 43.6243 170.726 43.422C170.18 43.2099 170.061 42.6616 170.061 42.0938C170.606 41.2421 171.352 41.6794 171.888 41.6533C172.501 41.6076 172.534 40.9125 173.153 40.8864C174.522 41.1181 175.229 41.8034 175.339 43.2425C175.486 44.8317 175.289 46.4341 174.761 47.9385C174.116 49.7039 173.066 50.709 170.371 52.1318C169.844 52.0568 170.019 51.3193 169.535 51.192C168.753 51.0223 167.988 51.2769 167.207 51.3323C166.426 51.3878 165.728 51.9491 164.624 51.5249C163.026 48.6531 162.836 45.4779 163.591 41.8948Z" fill="#DF0000"/>
<path d="M168.243 40.6057C168.259 40.1129 168.789 39.8943 168.837 39.4211C170.216 38.3605 171.045 36.8757 172.224 35.6291C172.624 35.2081 172.927 34.673 173.515 34.5522C174.593 35.058 174.593 35.058 174.697 36.1219C174.459 36.499 174.105 36.7868 173.689 36.941C171.701 37.92 170.138 39.519 168.227 40.6024L168.243 40.6057Z" fill="#DF0000"/>
<path d="M171.633 33.5634C169.961 34.2944 168.163 34.1345 166.555 34.8688C167.265 32.976 169.07 32.6628 170.374 31.7392C171.743 32.2091 171.743 32.2091 171.633 33.5634Z" fill="#DF0000"/>
<path d="M168.837 39.4081C167.895 39.5288 167.727 38.7554 167.491 38.1484C167.194 37.3554 167.052 36.5363 167.52 35.7205C168.231 35.3452 168.602 35.6487 168.87 36.3079C169.09 36.7952 169.202 37.3257 169.196 37.8616C169.191 38.3975 169.068 38.9256 168.837 39.4081Z" fill="#DF0000"/>
<path d="M168.928 45.442C169.228 45.1647 169.591 44.9664 169.985 44.8645C170.379 44.7626 170.792 44.7604 171.187 44.8578C171.607 45.1842 171.739 45.6313 171.407 46.0163C171.133 46.3504 170.766 46.5936 170.354 46.7146C169.942 46.8356 169.504 46.8288 169.095 46.6951C168.914 46.5479 168.795 46.3357 168.764 46.1025C168.732 45.8692 168.791 45.6327 168.928 45.442Z" fill="#DF0000"/>
<path d="M60.6536 45.4485C60.6548 45.229 60.6786 45.0103 60.7246 44.7958C60.7981 44.65 60.8952 44.5177 61.0119 44.4042C61.1402 44.5014 61.2591 44.6107 61.3671 44.7306C61.4542 44.8536 61.5208 44.9903 61.564 45.1352C62.0966 46.6788 63.078 47.9286 64.0562 49.2013C64.6599 49.9911 65.467 50.5067 66.1579 51.1789L66.9488 51.9393C67.0263 52.0143 67.1199 52.1481 67.1909 52.1383C67.9205 52.0437 68.5339 52.6507 69.3539 52.4353C69.3539 52.6442 69.3991 52.8498 69.3216 52.9444C68.7656 53.6906 68.0449 54.2952 67.2167 54.7099C66.768 54.9122 66.7519 54.8208 66.4871 54.4227C66.1643 53.9201 65.8834 53.2838 65.1603 53.1761C65.0545 53.1705 64.952 53.1367 64.8633 53.0782C64.3952 52.6996 63.9271 52.3244 63.488 51.9132C63.4009 51.8316 63.4009 51.6064 63.4267 51.4563C63.5106 50.9276 63.3525 50.647 62.823 50.6503C62.3178 50.6802 61.8152 50.7446 61.3186 50.8428L60.6536 50.3207C60.6536 49.903 60.6536 49.3645 60.6536 48.8261C60.6459 48.6755 60.6842 48.5263 60.7634 48.3986C61.1282 47.9743 61.1056 47.4783 61.0378 46.9823C61.0124 46.5421 60.8911 46.1131 60.6826 45.7259C60.4825 46.2448 60.3437 46.669 60.1532 47.0736C59.9627 47.4783 59.8304 47.9156 59.3429 48.2484C58.878 46.6494 58.4325 45.1222 57.9773 43.5623C58.1255 43.5329 58.2696 43.4858 58.4067 43.422C58.5165 43.3469 58.6746 43.2262 58.6714 43.1283C58.6714 42.9227 58.4939 42.9651 58.3486 42.9847C58.2614 42.9847 58.1613 42.9162 58.0677 42.8803L58.1 42.753L58.8135 42.8476C58.8922 42.5896 58.9431 42.3237 58.9652 42.0546C58.9652 41.3008 58.8942 40.547 58.8587 39.7931C58.8135 38.7521 58.9684 37.7699 59.6851 36.9508C59.7847 36.8408 59.8419 36.6984 59.8465 36.5494C59.7884 35.7597 60.0854 35.0613 60.3405 34.3499C60.4476 34.0914 60.5319 33.8239 60.5923 33.5504C60.667 33.2364 60.6845 32.9113 60.6439 32.591C60.4147 31.4521 60.1274 30.3262 59.8756 29.1906C59.8468 28.9866 59.7718 28.7922 59.6564 28.6224C59.541 28.4526 59.3885 28.312 59.2105 28.2116C59.0424 28.1184 58.8834 28.0091 58.736 27.8852C58.5833 27.784 58.4568 27.6474 58.367 27.4867C58.2771 27.3261 58.2266 27.1461 58.2195 26.9617C58.214 26.8837 58.1908 26.8081 58.1516 26.7407C58.1124 26.6733 58.0583 26.616 57.9935 26.5734C56.9346 26.2013 56.3018 26.3025 55.3204 26.9682C54.8782 27.2685 54.4617 27.6209 54.0065 27.8885C53.5513 28.1561 53.0994 28.3519 52.6539 28.5738C52.5893 28.4661 52.5441 28.4302 52.5505 28.3976C52.6377 27.7221 52.4763 27.7057 51.8791 27.7449C51.6392 27.7509 51.4032 27.6837 51.2017 27.5522C51.0001 27.4206 50.8425 27.2308 50.7492 27.0074C50.7377 26.9054 50.747 26.8022 50.7764 26.704C50.8059 26.6058 50.8548 26.5147 50.9203 26.4363C51.2818 26.0153 51.6854 25.6303 52.076 25.2289C52.1793 25.1212 52.2891 25.0167 52.3988 24.9025C53.0025 24.276 52.9509 24.0149 52.2342 23.5515C51.7804 23.3001 51.2551 23.2137 50.7459 23.3068C50.6623 23.3133 50.5836 23.3491 50.5232 23.4079C50.2003 23.7343 49.8775 24.0932 49.5547 24.4293C49.44 24.5271 49.3604 24.6603 49.3283 24.8084C49.2962 24.9565 49.3134 25.1112 49.3771 25.2484C49.4523 25.5085 49.5031 25.7751 49.5289 26.0447C48.4151 26.0251 47.5919 25.392 46.5976 24.6774C46.972 24.6121 47.2109 24.5795 47.4434 24.524C47.7307 24.4555 48.089 24.4261 48.173 24.0834C48.2166 23.9238 48.2089 23.7542 48.1508 23.5993C48.0928 23.4445 47.9875 23.3123 47.8501 23.2219C47.7478 23.1466 47.6638 23.0486 47.6045 22.9355C47.5452 22.8224 47.5121 22.6972 47.5079 22.5692C47.4272 22.1418 47.2529 22.0373 46.8171 22.1026C46.4976 22.1504 46.1985 22.2903 45.9557 22.5057C45.7129 22.721 45.5367 23.0025 45.4483 23.3165C45.3242 23.662 45.2366 24.0196 45.1868 24.3837C45.1617 24.605 45.092 24.8188 44.9821 25.0118C44.8722 25.2049 44.7243 25.3731 44.5476 25.5063C43.6985 26.2307 42.9076 27.027 42.0392 27.7253C41.5977 28.0638 41.1019 28.3232 40.5735 28.4922C39.8439 28.7337 38.8755 27.9342 38.9207 27.1869C38.9207 27.1151 39.0014 27.0465 39.0433 26.9748C39.8181 25.6324 40.594 24.2901 41.3709 22.9478C41.42 22.8832 41.456 22.8095 41.4767 22.7308C41.4974 22.6521 41.5026 22.57 41.4918 22.4893C41.4809 22.4086 41.4544 22.3308 41.4138 22.2606C41.3731 22.1903 41.319 22.1288 41.2547 22.0797C40.7253 21.5837 40.0796 21.6 39.4372 21.7143C39.1757 21.7599 39.0918 22.0177 39.1531 22.2886C39.2273 22.6149 39.3113 22.9413 39.4081 23.3557C38.7625 23.1207 38.388 22.6737 37.9393 22.331C37.0515 21.6588 36.1637 20.98 35.292 20.2849C35.0888 20.0983 34.9069 19.8892 34.7497 19.6616C34.6432 19.5278 34.585 19.3516 34.4688 19.2276C34.3074 19.0448 34.146 18.7805 33.8232 18.9992C33.7514 19.0559 33.6933 19.1285 33.6534 19.2113C33.6134 19.2942 33.5927 19.3851 33.5927 19.4772C33.5927 19.5694 33.6134 19.6603 33.6534 19.7432C33.6933 19.826 33.7514 19.8985 33.8232 19.9553C33.9712 20.0825 34.0868 20.2437 34.1604 20.4254C34.234 20.6071 34.2634 20.804 34.2461 20.9996C34.2316 21.1294 34.2589 21.2606 34.3241 21.3735C34.3892 21.4864 34.4887 21.575 34.6076 21.6261C35.0176 21.8383 35.4244 22.0569 35.857 22.2788C35.7151 22.385 35.5471 22.45 35.3713 22.4667C35.1954 22.4833 35.0185 22.4511 34.8594 22.3734C34.0556 21.9851 33.1581 22.0047 32.2768 21.9427C32.0213 21.9166 31.7639 21.9166 31.5085 21.9427C30.54 22.0667 29.7716 21.7012 29.0453 21.0812C28.0994 20.2719 27.0276 19.6159 26.1882 18.6728C26.0333 18.4966 25.888 18.3171 25.7072 18.1017C25.9267 17.9516 26.1237 17.8341 26.3012 17.6906C26.85 17.2402 26.8016 16.6952 26.1915 16.3493C25.8867 16.1994 25.5932 16.0271 25.3134 15.8337C25.062 15.5985 24.8298 15.3432 24.6193 15.0701C25.1229 14.9102 25.6297 15.1517 26.1527 15.1713C26.1527 15.0668 26.1915 14.9885 26.1527 14.9526C25.7675 14.3728 25.2234 13.9192 24.587 13.6473C24.0801 13.4482 24.0608 13.4776 23.8768 13.9736C23.8025 14.189 23.8768 14.5251 23.4539 14.6067C23.3235 14.315 23.2145 14.0139 23.1278 13.706C22.8824 12.652 22.6694 11.5946 22.4563 10.5373C22.4208 10.3676 22.4563 10.1881 22.424 10.0185C22.3975 9.90054 22.4161 9.77688 22.476 9.6722C22.5358 9.56752 22.6326 9.48955 22.7469 9.45389C23.0227 9.33835 23.3093 9.2509 23.6024 9.19283C24.3481 9.06556 24.6871 8.54016 24.8711 7.88749C25.0067 7.39473 24.5482 6.8367 23.9672 6.77143C23.6701 6.73174 23.368 6.76418 23.0858 6.86607C22.4402 7.13692 21.7945 7.46652 21.1747 7.7798C20.9293 7.90054 20.6904 8.04087 20.345 8.22688C20.6033 7.39799 21.5007 7.1924 21.6621 6.34393C21.4848 6.35444 21.3103 6.39412 21.1456 6.46141C20.5 6.89544 19.8543 7.3262 19.2732 7.81896C18.9923 8.05392 18.8664 8.49121 18.5759 8.70333C17.6074 9.40494 16.8713 10.397 15.6704 10.7658C14.6309 11.0921 13.6108 11.4804 12.5034 11.4804C12.3318 11.4961 12.1593 11.4598 12.0081 11.3761C11.8569 11.2925 11.7338 11.1652 11.6544 11.0105C12.2549 10.7331 12.8295 10.5047 13.3686 10.211C13.9078 9.91729 14.5405 9.82918 14.8633 9.20262C14.4709 9.06335 14.048 9.03628 13.6413 9.12437C13.2346 9.21247 12.8599 9.41232 12.5583 9.70191C12.487 9.78028 12.4001 9.84255 12.3033 9.88465C11.2154 10.3774 10.3276 11.1639 9.39782 11.8786C8.95601 12.181 8.43948 12.3528 7.90634 12.3746C7.39664 12.4027 6.88543 12.372 6.38258 12.2832C5.70786 12.2016 5.03961 12.0776 4.33261 11.9569C4.00978 11.4837 4.83622 11.4608 4.71355 10.9779C4.51876 10.9705 4.32377 10.9858 4.13245 11.0236C3.72891 11.1508 3.33506 11.3173 2.94444 11.4804C2.16319 11.8068 1.39162 11.9438 0.626515 11.4445C0.571226 11.4124 0.512807 11.3862 0.452186 11.3662C-0.061114 11.19 -0.141822 10.8571 0.232662 10.4394C0.607145 10.0217 1.08493 9.52895 1.48847 9.0525C1.8113 8.68048 2.08894 8.27257 2.38917 7.88423C2.56995 7.65253 2.75397 7.42736 2.97672 7.14998L2.83145 6.56584C3.02704 6.57697 3.22082 6.6098 3.40931 6.66374C4.11631 6.96723 4.82977 7.26746 5.51739 7.61337C6.12479 7.93857 6.80626 8.09616 7.49312 8.07024C8.09358 8.04087 8.69405 8.07024 9.29451 8.04739C9.64962 8.02781 9.83041 8.1094 9.7949 8.501C9.80452 8.58651 9.82969 8.66949 9.86915 8.74575C9.94986 8.74575 10.0306 8.74575 10.0693 8.70985C10.8312 8.05719 11.7545 8.20077 12.6519 8.18119C12.7165 8.18119 12.8004 8.15835 12.8392 8.18119C13.3073 8.56953 13.5978 8.25625 13.9174 7.94297C13.9784 7.88861 14.0495 7.84706 14.1266 7.82072C14.2036 7.79439 14.2851 7.78381 14.3662 7.78959C15.919 7.9397 17.1425 7.22503 18.2627 6.27214C19.1441 5.52157 19.9641 4.69921 20.8454 3.94538C21.5698 3.27482 22.4103 2.74493 23.3247 2.38224C24.4934 1.95801 25.8234 2.25823 26.5562 3.2046C27.1859 4.00106 27.6394 4.92465 27.8863 5.91317C27.8863 5.97518 27.9251 6.0796 27.8863 6.09592C27.4892 6.3733 27.825 6.59847 27.9186 6.85628C28.1213 7.35084 28.2865 7.86031 28.4125 8.38026C28.7063 9.84223 28.9517 11.3173 29.2293 12.7792C29.293 13.0536 29.3761 13.3229 29.4779 13.5853C29.6619 14.1205 29.9137 14.5643 30.5626 14.6198C30.7453 14.6513 30.9176 14.7272 31.065 14.8408C31.2123 14.9545 31.3301 15.1026 31.4084 15.2724C31.5157 15.4733 31.6684 15.6456 31.8541 15.7755C32.0398 15.9054 32.2532 15.9891 32.477 16.0197C32.6264 16.0325 32.771 16.0794 32.8999 16.1568C33.807 16.829 34.8368 16.7866 35.8667 16.6724C37.3617 16.4994 38.7811 15.9147 39.9699 14.982C40.0955 14.8857 40.2517 14.8393 40.4089 14.8515C40.4767 14.8515 40.5671 15.106 40.5477 15.2267C40.4975 15.7468 40.5937 16.2706 40.8254 16.7377C40.8996 16.9171 40.9351 17.1129 40.9932 17.299C41.0287 17.4197 41.0449 17.5796 41.1256 17.6547C41.7712 18.2616 41.8649 19.133 42.1845 19.8933C42.2297 20.0043 42.2942 20.1087 42.3491 20.2196C42.4686 20.1446 42.6493 20.1022 42.6978 19.9945C42.9108 19.5278 43.1013 19.0448 43.2692 18.5586C43.5081 17.8668 43.7308 17.1717 43.9374 16.4668C43.9916 16.2837 43.9916 16.0886 43.9374 15.9055C43.7696 15.4389 43.5533 14.9918 43.3693 14.5316C43.2498 14.2379 43.0077 14.2836 42.7752 14.2706C42.1554 14.2412 41.5356 14.1988 40.919 14.1662C40.5815 14.1654 40.2545 14.0477 39.9925 13.8327C39.7305 13.6178 39.5493 13.3185 39.4792 12.9848C39.2596 12.1755 39.1047 11.3532 38.9271 10.521C38.8722 10.2697 38.8367 10.0152 38.7948 9.76065C38.7751 9.70005 38.7679 9.63603 38.7737 9.57252C38.7795 9.50901 38.798 9.44738 38.8283 9.39142C38.8585 9.33545 38.8998 9.28635 38.9496 9.24715C38.9993 9.20794 39.0565 9.17946 39.1176 9.16346C39.4662 9.00681 39.8057 8.8303 40.1345 8.6348C40.2296 8.592 40.331 8.56553 40.4347 8.55648C40.5196 8.54834 40.6049 8.54834 40.6898 8.55648C41.203 8.53758 41.709 8.6826 42.136 8.97092C42.4589 9.20914 42.9915 9.17651 43.4274 9.19935C43.7082 9.19935 43.847 9.25809 43.8955 9.57464C43.9665 10.0217 44.1214 10.4525 44.2183 10.88C44.272 11.1122 44.3002 11.3497 44.3022 11.5881C44.3022 12.0515 44.2667 12.1037 43.7922 12.1005C43.4693 12.1005 43.3305 12.2147 43.3305 12.5475C43.3305 12.8804 43.2853 13.2002 43.2627 13.5265C43.2627 13.7191 43.2627 13.8529 43.5242 13.879C43.5783 13.8891 43.6289 13.913 43.6713 13.9484C43.7136 13.9838 43.7464 14.0295 43.7663 14.0813C43.8987 14.9167 44.412 15.54 44.9447 16.1209C45.7969 17.0281 46.6686 17.919 47.5725 18.774C48.3053 19.4658 49.0995 20.0793 49.8517 20.7614C50.0267 20.9129 50.1685 21.0996 50.2681 21.3096C50.3045 21.4114 50.3727 21.4983 50.4625 21.5572C50.5522 21.6161 50.6586 21.6438 50.7653 21.6359C52.4341 21.6836 54.0918 21.9278 55.7046 22.3637C55.9553 22.418 56.2102 22.4497 56.4665 22.4583C56.8119 22.4811 57.2122 22.3408 57.3704 22.8401C57.3898 22.9054 57.5512 22.938 57.6545 22.9576C58.4261 23.1012 59.2073 23.2056 59.966 23.3981C60.2169 23.5088 60.4302 23.6915 60.5793 23.9235C61.2342 24.7337 61.6414 25.7191 61.7512 26.7594C61.8546 27.3873 62.089 27.9857 62.4388 28.515C62.6049 28.7876 62.6984 29.0991 62.71 29.419C62.71 30.522 62.7455 31.6283 62.71 32.7345C62.6738 33.4248 62.5907 34.1117 62.4614 34.7904C62.3758 35.1131 62.2679 35.4293 62.1386 35.7368C62.0446 35.9427 61.9867 36.1636 61.9675 36.3895C61.9998 37.61 61.7254 38.7946 61.5995 39.9987C61.5252 40.684 61.5478 41.3824 61.5382 42.0742C61.5382 42.3744 61.6156 42.6583 61.154 42.7269C60.8796 42.7758 60.9215 43.0989 61.0055 43.3371C61.0894 43.5753 61.1863 43.7842 61.2767 43.9898L61.1604 44.0485L60.7601 43.4448C60.1952 43.7124 60.15 43.8136 60.2436 44.3227C60.2888 44.5499 60.2888 44.784 60.2436 45.0112C60.179 45.2984 60.2436 45.4746 60.5148 45.5627L60.7117 45.7487C60.6891 45.6671 60.6633 45.5562 60.6536 45.4485Z" fill="#DF0000"/>
<path d="M32.9063 56.8343C33.1129 56.57 32.9063 56.4525 32.7288 56.3252C31.8248 55.6301 31.544 54.6348 31.4633 53.5677C31.4851 53.23 31.5648 52.8987 31.6989 52.5887C31.7538 52.4059 31.9023 52.2395 31.9249 52.0568C31.9645 51.8363 31.9375 51.6089 31.8474 51.4041C31.7441 51.2246 31.2631 51.3258 31.0307 51.5216C30.7556 51.7644 30.5683 52.0927 30.498 52.4549C30.356 53.0423 30.3398 53.0358 29.6328 52.9052C29.7167 52.5789 29.8007 52.2526 29.8814 51.9262L30.343 50.1444C30.3523 50.059 30.3741 49.9754 30.4076 49.8964C30.7143 49.4102 30.6336 49.0186 30.2397 48.5911C30.0903 48.3537 30.0159 48.076 30.0267 47.7948C29.8867 46.42 29.8662 45.0354 29.9653 43.6569C30.1125 41.7793 30.4434 39.9209 30.9532 38.1093C31.3567 36.6864 31.8829 35.2963 32.3575 33.893C32.7804 33.5341 32.8417 33.0315 32.9483 32.5224C33.0606 32.2182 33.2268 31.9373 33.439 31.6935C34.3733 30.3163 35.543 29.1184 36.8933 28.1561C37.0845 28.0178 37.2943 27.9079 37.5163 27.8297C37.6325 27.7873 37.8392 27.7873 37.9037 27.8624C37.9334 27.9268 37.9488 27.9969 37.9488 28.068C37.9488 28.139 37.9334 28.2092 37.9037 28.2736C37.7915 28.5037 37.6575 28.7223 37.5034 28.9262C37.3485 29.1481 37.1806 29.3668 37.413 29.6213C37.5409 29.7411 37.6976 29.825 37.8676 29.8645C38.0375 29.904 38.2147 29.8978 38.3815 29.8465C38.8464 29.5919 38.8754 29.6017 39.0272 30.0978C39.279 30.894 39.279 30.894 39.9763 30.4241C40.0086 30.4013 40.0441 30.3817 40.128 30.3327C40.1576 30.5175 40.1576 30.7059 40.128 30.8908C39.9182 31.4325 39.6761 31.9611 39.4339 32.4865C39.3855 32.5975 39.2854 32.7411 39.1886 32.7639C38.8449 32.8522 38.523 33.011 38.2427 33.2306C38.1917 33.2699 38.1334 33.2987 38.0714 33.3152C38.0093 33.3317 37.9446 33.3357 37.881 33.3269C37.8175 33.3181 37.7562 33.2967 37.7008 33.264C37.6454 33.2312 37.597 33.1877 37.5583 33.1359C36.9126 32.4833 36.6641 32.4833 35.9441 33.0805C35.7375 33.2404 35.6213 33.2045 35.5277 32.9434C35.5277 32.901 35.5083 32.8585 35.4954 32.8161C35.3017 32.059 35.2081 31.9938 34.5269 32.3625C34.1446 32.5993 33.7847 32.8713 33.4519 33.1751C33.4206 33.2144 33.3996 33.2609 33.3905 33.3104C33.3815 33.36 33.3849 33.4111 33.4002 33.459C33.4261 33.5145 33.5778 33.5373 33.6682 33.5308C34.0201 33.4949 34.372 33.446 34.8465 33.3839C34.7271 33.5961 34.698 33.7103 34.6302 33.756C34.1815 33.9387 34.3913 34.3205 34.4139 34.5979C34.4365 34.8753 34.7077 34.8002 34.8885 34.735C35.3308 34.5751 35.7601 34.3793 36.2024 34.2226C36.5543 34.0986 36.9191 34.0138 37.3646 33.8963C37.363 34.0764 37.3501 34.2563 37.3259 34.4347C37.2738 34.5645 37.2574 34.7062 37.2784 34.8446C37.2994 34.9831 37.3571 35.1132 37.4453 35.2212C37.5257 35.3502 37.5682 35.4995 37.568 35.652C37.7068 36.9345 37.8101 38.2202 37.9812 39.4994C38.083 40.1146 38.2264 40.7219 38.4106 41.3171C38.9239 43.1642 39.4856 45.0014 39.9601 46.8648C40.2055 47.8242 40.312 48.8228 40.4734 49.8018C40.4773 49.9591 40.4665 50.1164 40.4412 50.2717C40.2381 50.0816 40.089 49.8401 40.0095 49.572C39.93 49.304 39.923 49.0194 39.9892 48.7477C40.0166 48.5888 39.9958 48.4252 39.9296 48.2784C39.8633 48.1317 39.7547 48.0086 39.618 47.9254C39.5109 47.8502 39.3899 47.7977 39.2623 47.7709C39.1346 47.7441 39.003 47.7437 38.8751 47.7696C38.7473 47.7955 38.626 47.8472 38.5184 47.9216C38.4109 47.9961 38.3193 48.0917 38.2491 48.2028C38.2402 48.2223 38.2294 48.2409 38.2169 48.2582C37.7488 49.0773 37.5712 49.2144 36.6415 48.9957C35.5826 48.7477 34.5527 48.3822 33.5132 48.0461C33.3615 47.9972 33.2485 47.834 33.1065 47.7459C32.7467 47.4797 32.3604 47.2523 31.954 47.0671C31.821 47.0027 31.6735 46.9749 31.5264 46.9867C31.3794 46.9985 31.238 47.0494 31.1167 47.1342C30.9954 47.219 30.8985 47.3348 30.8358 47.4697C30.773 47.6047 30.7467 47.754 30.7595 47.9025C30.7547 48.3339 30.8002 48.7644 30.8951 49.185C30.9629 49.5277 31.1727 49.6223 31.5149 49.5897C32.0024 49.544 32.4834 49.5114 32.9773 49.4787C33.2133 49.4615 33.45 49.4981 33.6701 49.5856C33.8903 49.6731 34.0882 49.8095 34.2493 49.9845C34.5721 50.3109 34.8401 50.6698 35.1435 51.0027C35.376 51.2638 35.5148 51.2409 35.6601 50.944C36.0281 50.1967 36.1378 50.1673 36.9514 50.6503C36.7157 50.9342 36.8416 51.2311 36.9191 51.5444C37.0385 52.0339 37.1192 52.5234 37.2161 53.026L37.0773 53.0586L36.8707 52.5789C36.6722 52.8194 36.5692 53.1259 36.5817 53.4389C36.5942 53.7519 36.7214 54.049 36.9385 54.2726C37.2419 54.5467 37.2613 54.5402 37.2322 54.9774C37.1483 54.4488 36.6996 54.3998 36.3444 54.2334C36.1673 54.1545 36.0152 54.0278 35.9047 53.8672C35.7942 53.7066 35.7296 53.5182 35.7182 53.3229C35.7182 53.1826 35.6826 53.039 35.6568 52.8595C35.2953 52.9118 35.2856 53.1435 35.2823 53.3784C35.2823 53.6819 35.2662 53.9854 35.263 54.2889C35.2597 54.5924 35.263 54.8469 35.263 55.1439C35.1135 55.1805 34.9676 55.2307 34.8271 55.294C34.7432 55.3397 34.6238 55.4604 34.6399 55.5126C34.7884 56.025 34.3687 56.1849 34.104 56.4329C34.0104 56.521 33.8845 56.5765 33.7812 56.6646C33.5584 56.8832 33.3357 56.9909 33.0645 56.7396C33.0451 56.7201 32.9547 56.7755 32.8999 56.7984L32.9063 56.8343Z" fill="#DF0000"/>
<path d="M32.9001 56.8278C32.8323 57.3532 32.7484 57.8753 32.7096 58.404C32.6773 58.8543 32.8549 59.0566 33.2972 59.2067C33.49 59.2829 33.7001 59.3027 33.9035 59.264C34.107 59.2252 34.2955 59.1294 34.4477 58.9875C34.5998 58.8456 34.7095 58.6633 34.764 58.4615C34.8186 58.2596 34.816 58.0463 34.7564 57.8459C34.7077 57.7178 34.709 57.5758 34.7599 57.4486C34.8109 57.3214 34.9077 57.2185 35.0308 57.1606C35.4799 56.8905 36.0015 56.7695 36.5222 56.8147C36.4641 57.2977 36.377 57.7937 36.3544 58.2604C36.3318 58.727 36.4996 58.9653 36.9161 59.0566C37.085 59.0984 37.2632 59.0763 37.4172 58.9946C37.5712 58.9129 37.6903 58.7771 37.7522 58.6128C37.8684 58.4083 37.9564 58.1887 38.0137 57.9601C38.0514 57.7378 38.1474 57.5297 38.2916 57.3576C38.4358 57.1854 38.623 57.0554 38.8337 56.9811C38.895 57.1313 38.9661 57.2748 39.0145 57.4282C39.1985 58.0058 39.4116 58.1559 39.983 58.1103C40.7578 58.045 40.7449 58.045 40.8998 58.838C40.9902 59.2981 41.1161 59.7517 41.2227 60.2053C41.2485 60.3065 41.3356 60.4109 41.3227 60.5023C41.2769 60.9621 41.3911 61.4237 41.6456 61.8076C41.8425 62.134 41.6682 62.3102 41.4293 62.5092C41.1904 62.7083 40.9967 62.6398 40.761 62.457C40.1153 61.9643 40.0379 61.2529 39.9668 60.5447C39.9558 60.3284 39.8934 60.1179 39.7849 59.931C39.6765 59.7442 39.5252 59.5864 39.3438 59.4711C39.0435 59.272 38.8821 59.3144 38.753 59.6538C38.5925 60.0303 38.4608 60.4187 38.3591 60.8156C38.3312 61.0692 38.3498 61.3259 38.414 61.5727C38.4522 61.6964 38.5077 61.8139 38.5787 61.9218C38.9951 62.754 38.9015 62.9269 37.9944 63.1423C37.7413 63.203 37.4777 63.2027 37.2248 63.1415C36.9719 63.0803 36.7368 62.9599 36.5384 62.7899C36.7063 62.5451 36.8612 62.3036 37.042 62.0556C37.2874 61.6901 37.2228 61.5433 36.7805 61.4617C36.5287 61.4128 36.2769 61.3638 36.0251 61.3246C35.3342 61.2202 35.0114 61.4225 34.8564 62.1046C34.7725 62.5297 34.5591 62.9176 34.2463 63.2141C33.8298 63.5992 33.6006 63.5992 33.2003 63.2141C33.1196 63.1423 33.055 63.0542 32.9743 62.9857C32.7903 62.8258 32.6515 62.816 32.5256 63.0705C32.4578 63.2239 32.3706 63.3675 32.3061 63.4915C31.6895 63.0379 31.0987 62.6235 30.5305 62.1862C30.3878 62.0699 30.2942 61.903 30.269 61.7195C30.269 61.6347 30.4918 61.5172 30.6274 61.4389C30.8307 61.3214 31.0955 61.2724 31.244 61.1125C31.5668 60.7634 31.9348 60.809 32.3093 60.8971C32.6063 60.9689 32.8646 61.0668 33.1196 60.7666C33.2035 60.6687 33.4424 60.7111 33.6039 60.6654C33.7223 60.6507 33.8301 60.5893 33.9039 60.4946C33.9777 60.3998 34.0114 60.2794 33.9977 60.1596C33.9969 60.0497 33.9535 59.9444 33.8769 59.8663C33.8003 59.7883 33.6965 59.7436 33.5877 59.7419C33.2649 59.6962 32.9421 59.6636 32.6192 59.6375C32.3085 59.6397 31.999 59.5991 31.6992 59.5168C31.3763 59.4058 30.9792 59.5983 30.5563 59.6669C30.5208 59.5004 30.4853 59.272 30.4272 59.0534C30.3207 58.6618 30.1399 58.3159 29.7008 58.2375C29.477 58.2334 29.2564 58.2922 29.0637 58.4074C28.871 58.5227 28.7138 58.6898 28.6097 58.8902C28.5108 59.0734 28.4825 59.2871 28.5302 59.4901C28.5779 59.6932 28.6982 59.8712 28.8679 59.9899C29.0741 60.1305 29.2886 60.258 29.5104 60.3718C29.223 60.6165 28.9002 60.8254 28.8647 61.2463C28.8647 61.3149 28.6 61.3671 28.4515 61.403C28.4063 61.403 28.3385 61.354 28.2804 61.3246C27.6347 60.9559 27.6347 60.9559 27.3926 61.651C26.8502 61.6934 26.7954 61.6738 26.8276 61.2006C26.8359 60.8354 26.9241 60.4765 27.0859 60.1498C27.5798 59.3014 28.1351 58.4855 28.6807 57.6697C28.8242 57.4698 29.0156 57.3101 29.237 57.2056C29.4584 57.1012 29.7025 57.0553 29.9462 57.0725C30.8856 57.0497 31.8218 56.9877 32.758 56.9355C32.8129 56.9355 32.8646 56.8767 32.9195 56.8441L32.9001 56.8278Z" fill="#DF0000"/>
<path d="M43.2174 7.27398C43.0345 7.33573 42.848 7.38586 42.6589 7.42409C41.9455 7.51873 41.2255 7.584 40.5121 7.70148C40.3281 7.73085 40.1699 7.91033 39.9471 8.05392C39.408 7.58726 38.8689 8.03107 38.2265 8.27909C37.7783 6.79471 37.7414 5.21449 38.1199 3.71041C38.5041 3.7561 38.5331 4.03675 38.5913 4.23255C38.701 4.64699 38.7591 5.07449 38.8689 5.48893C38.9338 5.6345 39.021 5.76885 39.1271 5.88706C39.2305 5.76632 39.3886 5.66189 39.4242 5.52483C39.6179 4.75468 39.7825 3.97475 39.9536 3.19807C39.9923 3.03164 40.0117 2.87174 40.044 2.69225C40.115 2.3235 40.2506 1.95474 39.8019 1.69041C39.7547 1.66048 39.7144 1.62079 39.6835 1.57396C39.6527 1.52713 39.632 1.47422 39.6228 1.41871C39.6137 1.36321 39.6163 1.30637 39.6304 1.25195C39.6446 1.19754 39.67 1.14677 39.705 1.10301C39.9278 0.744041 40.1699 0.40139 40.4411 0C40.6703 0.34265 40.864 0.597191 41.0189 0.871311C41.0624 0.925318 41.0942 0.987918 41.1123 1.05509C41.1305 1.12227 41.1345 1.19253 41.1241 1.26137C41.1138 1.33021 41.0893 1.3961 41.0523 1.45481C41.0153 1.51353 40.9665 1.56376 40.9092 1.6023C40.81 1.68177 40.7353 1.78806 40.6936 1.9088C40.6518 2.02953 40.6449 2.15976 40.6735 2.28434C40.8349 3.3286 40.9963 4.37614 41.1739 5.4204C41.1739 5.47588 41.2352 5.52483 41.2901 5.61294C41.6678 5.3225 41.6484 4.89501 41.7066 4.51972C41.8195 3.8181 41.8873 3.10996 41.9907 2.41161C42.0197 2.20275 42.0746 1.96779 42.4103 2.03632C42.4103 2.07875 42.4588 2.14075 42.4458 2.18644C42.1682 3.19807 42.5782 4.12812 42.7687 5.08102C42.9333 5.80548 43.0657 6.52667 43.2174 7.27398Z" fill="#DF0000"/>
<path d="M40.3314 50.9277C40.6091 52.4908 41.1094 53.9626 41.2644 55.6008C40.9794 55.4951 40.6709 55.4715 40.3734 55.5326C40.0758 55.5936 39.8009 55.737 39.5792 55.9467C39.2306 56.2241 38.6689 56.0968 38.2459 55.7313C38.066 55.6096 37.9407 55.4212 37.8972 55.2068C37.8537 54.9924 37.8955 54.7693 38.0135 54.5859C38.3622 53.8027 38.2556 52.9542 38.317 52.1579C38.346 51.7925 38.3396 51.4204 38.4041 51.0615C38.4816 50.6405 38.727 50.5459 39.1047 50.7547C39.6244 51.0451 39.6244 51.0451 40.3314 50.9277Z" fill="#DF0000"/>
<path d="M67.178 56.087C66.7407 56.2805 66.2922 56.4472 65.8351 56.5863C65.7414 56.5887 65.6482 56.5714 65.5615 56.5355C65.4748 56.4995 65.3964 56.4457 65.3315 56.3774C64.5276 55.604 63.7173 54.8241 62.9586 54.0148C62.7174 53.7171 62.5015 53.3994 62.313 53.0651C63.0684 52.6507 63.1491 52.6703 63.7464 53.1565C64.4275 53.7113 65.1378 54.2334 65.8125 54.7882C66.258 55.1798 66.6744 55.6105 67.178 56.087Z" fill="#DF0000"/>
<path d="M43.0303 15.181C43.1531 15.3419 43.2521 15.52 43.324 15.7097C43.3563 15.8729 43.3079 16.209 43.2498 16.2188C42.6364 16.3297 42.7559 16.8714 42.6041 17.2663C42.5788 17.3974 42.5702 17.5312 42.5783 17.6644C42.4362 17.5502 42.2974 17.4947 42.2748 17.4066C42.0747 16.6854 41.8971 15.961 41.7002 15.181H43.0303Z" fill="#DF0000"/>
<path d="M50.0776 25.3137C50.2326 24.7622 50.2875 24.1879 50.8169 23.855C51.0106 23.731 51.2172 23.5874 51.4335 23.855C51.5415 23.9586 51.6108 24.0967 51.6296 24.246C51.6484 24.3952 51.6156 24.5465 51.5368 24.6741C51.2605 24.9985 50.9663 25.3069 50.6555 25.5976C50.5232 25.6834 50.3783 25.7473 50.2261 25.7869L50.0776 25.3137Z" fill="#DF0000"/>
<path d="M40.2409 24.1487C40.1452 24.346 40.0236 24.5293 39.8794 24.6937C39.7112 24.8397 39.5049 24.9337 39.2853 24.9646C39.1207 24.9646 38.9625 24.3804 39.0594 24.1553C39.1041 24.0434 39.1899 23.9534 39.2988 23.9041C39.4078 23.8548 39.5314 23.8501 39.6437 23.8909C39.8493 23.9605 40.049 24.0467 40.2409 24.1487Z" fill="#DF0000"/>
<path d="M2.01465 12.789C2.10827 12.2342 2.58606 11.9569 3.74179 11.872L2.01465 12.789Z" fill="#DF0000"/>
<path d="M38.5363 2.3496C38.4394 2.49645 38.3555 2.63351 38.2554 2.75752C38.2393 2.7771 38.0972 2.73794 38.0908 2.71183C38.0447 2.55632 38.0347 2.39215 38.0617 2.23212C38.094 2.12769 38.2619 2.07222 38.3845 1.9939L38.5363 2.3496Z" fill="#DF0000"/>
<path d="M60.6534 45.4485L60.6857 45.7748L60.4888 45.5888L60.6534 45.4485Z" fill="#DF0000"/>
<path d="M131.621 19.6616C131.566 19.1329 131.886 18.8066 132.235 18.4868C133.552 17.2696 134.866 16.0458 136.189 14.8319C136.564 14.5278 136.846 14.1228 137.003 13.6636C137.235 12.8869 137.865 12.6617 138.675 12.962C139.463 15.7097 140.238 17.5731 136.673 20.1837C138.627 20.3045 139.682 18.849 141.032 18.0593C141.13 18.1546 141.206 18.2707 141.255 18.3994C141.303 18.5281 141.323 18.666 141.313 18.8033C140.079 20.001 138.785 21.1725 137.116 21.7926C136.365 22.0394 135.558 22.0465 134.804 21.8129C134.049 21.5794 133.384 21.1165 132.9 20.4872C132.783 20.3339 132.677 20.1609 132.577 20.0173C132.302 19.9782 132.186 20.1968 132.028 20.3436C131.439 20.8858 130.775 21.3396 130.059 21.6914C128.99 22.1515 128.041 21.6066 127.902 20.4383C127.786 19.4593 128.225 18.6402 128.761 17.8668C129.058 17.4393 129.474 17.0934 129.704 16.5288C128.973 16.6206 128.25 16.7656 127.541 16.9628C127.085 17.7917 126.217 18.3138 125.746 19.1819C125.704 19.2697 125.64 19.3455 125.562 19.4025C125.484 19.4594 125.393 19.4958 125.297 19.5082H125.126H125.145L124.981 19.6747L125 19.6518L124.9 19.7367L125 19.8248L124.981 19.8085C124.194 20.8022 123.173 21.5799 122.011 22.0699C120.755 22.5692 119.828 21.773 120.038 20.4383C120.099 20.0336 120.19 19.6322 120.277 19.1688C119.961 19.3185 119.686 19.5423 119.473 19.8215C119.026 20.2998 118.546 20.7458 118.036 21.1562C116.69 22.1352 115.612 21.3716 115.302 19.9912C115.255 19.6833 115.228 19.3726 115.221 19.0612C114.981 19.3672 114.678 19.6181 114.334 19.797C113.99 19.9759 113.613 20.0788 113.226 20.0989C112.698 20.1317 112.197 20.3511 111.812 20.7189C111.201 21.2821 110.438 21.6499 109.62 21.7763C109.147 21.8962 108.648 21.8435 108.209 21.6273C107.771 21.4112 107.422 21.0456 107.225 20.5949C107.018 20.1487 106.865 19.6785 106.77 19.195L105.562 20.2914C104.905 20.9108 104.138 21.4 103.303 21.7338C102.823 21.9086 102.304 21.9459 101.805 21.8415C101.544 21.7797 101.304 21.6511 101.107 21.4682C100.911 21.2853 100.764 21.0542 100.681 20.7972C100.445 20.2327 100.442 19.6159 100.323 18.9535C99.9515 19.2145 99.6384 19.4299 99.3285 19.6551C99.0594 19.8668 98.7352 19.9949 98.3955 20.0238C97.4528 20.0238 96.7813 20.5297 96.0937 21.0844C95.5849 21.463 94.9875 21.7014 94.3601 21.7763C93.9101 21.8837 93.4373 21.8323 93.0203 21.6304C92.6033 21.4286 92.2673 21.0885 92.068 20.6667C91.6207 19.872 91.4468 18.9498 91.5735 18.0445C91.7003 17.1392 92.1206 16.302 92.7685 15.664C93.9757 14.4071 95.5692 13.6018 97.2882 13.3797C97.4792 13.3488 97.6734 13.3422 97.866 13.3601C98.6796 13.4645 98.912 13.9475 98.4956 14.6981C99.4318 15.6183 99.0605 16.6561 98.6796 17.6579C98.5698 17.9484 98.3567 18.1996 98.3729 18.5847C99.28 18.712 99.732 17.9614 100.362 17.5731L100.42 17.8994C100.468 17.6677 100.462 17.5992 100.349 17.5731C100.539 17.3033 100.666 16.993 100.72 16.6659C101.171 14.9375 102.013 13.3388 103.18 11.996C104.185 10.7127 105.325 9.54307 106.579 8.50752C106.876 8.27582 107.17 7.9756 107.612 8.14855C107.906 8.41615 107.877 8.76206 107.854 9.10471C107.757 10.3026 107.37 11.4579 106.728 12.4692C105.665 14.1264 104.406 15.6464 102.98 16.9955C102.609 17.3121 102.356 17.7473 102.263 18.229C102.082 19.4854 102.999 20.2719 104.168 19.815C105.119 19.4026 105.993 18.8274 106.75 18.1148C107.302 15.1778 110.582 13.5461 112.742 13.3732H112.962C113.866 13.4156 114.143 13.892 113.736 14.7372C114.573 15.527 114.314 16.4505 114.033 17.3773C113.914 17.7689 113.633 18.1017 113.581 18.5847C114.466 18.787 114.889 17.981 115.551 17.7036C116.042 16.5359 116.77 15.4853 117.688 14.6198C118.382 13.9279 119.224 13.8757 120.112 13.9671C120.191 13.9752 120.266 14.0019 120.332 14.045C120.398 14.0881 120.454 14.1464 120.493 14.2151C120.593 14.6687 120.277 14.9591 120.003 15.2594C119.302 16.0661 118.525 16.8007 117.681 17.4523C117.383 17.6416 117.149 17.9189 117.011 18.2468C116.873 18.5748 116.837 18.9376 116.91 19.2863C117.34 19.3155 117.765 19.183 118.104 18.9143C119.341 18.1735 120.341 17.1423 121.404 16.1862C122.269 15.4095 123.098 14.5839 124.019 13.8724C124.299 13.6538 124.564 13.3829 124.948 13.3829C125.594 14.0846 125.594 14.8253 124.919 15.4943C124.022 16.3124 123.246 17.2577 122.617 18.3008C122.401 18.6957 122.13 19.1068 122.421 19.5768C123.454 19.9031 125.207 18.7609 126.114 17.2011C126.081 16.9889 125.817 16.9596 125.771 16.7377C125.633 15.168 127.453 13.0729 128.677 13.396C128.864 13.5983 128.677 13.879 128.851 14.1335C129.378 14.2184 129.907 13.9867 130.465 13.9638C131.024 13.941 131.508 13.7223 132.025 13.9018C132.887 14.8319 132.871 15.5106 131.97 16.3461C131.34 16.8752 130.795 17.5006 130.356 18.1996C130.238 18.3574 130.16 18.5414 130.127 18.7362C130.095 18.931 130.109 19.1309 130.168 19.319C130.265 19.4605 130.405 19.5649 130.568 19.6152C130.73 19.6656 130.905 19.6589 131.063 19.5963C131.157 19.5426 131.266 19.5203 131.374 19.5326C131.482 19.5449 131.583 19.5912 131.663 19.6649H131.695L131.621 19.6616ZM103.073 15.0472C103.283 15.1549 103.396 14.9852 103.496 14.871C104.496 13.8093 105.329 12.5986 105.966 11.2814C106.002 11.2239 106.022 11.1571 106.022 11.0888C106.022 11.0205 106.002 10.9537 105.966 10.8963C105.352 11.2226 104.978 11.7839 104.597 12.3256C104.027 13.1986 103.515 14.1089 103.064 15.0505V15.0864L103.073 15.0472ZM96.3584 16.0589C96.3189 16.0311 96.2733 16.0133 96.2256 16.0071C96.1778 16.0008 96.1293 16.0063 96.084 16.023C95.2459 16.3998 94.4915 16.9436 93.8662 17.622C93.4832 18.0654 93.2472 18.6189 93.1915 19.2047C93.1301 19.8835 93.4885 20.2816 94.1599 20.236C94.4726 20.2056 94.7748 20.1063 95.0454 19.9451C95.3159 19.7838 95.5481 19.5645 95.7257 19.3026C95.5788 18.9106 95.5257 18.4891 95.5707 18.0724C95.6927 17.3524 95.9585 16.6651 96.352 16.0524L96.3294 16.0262L96.3584 16.0589ZM111.551 15.9055C110.72 16.264 109.956 16.7628 109.291 17.3805C108.816 17.8371 108.506 18.4414 108.41 19.097C108.293 19.8672 108.733 20.3241 109.491 20.2164C110.058 20.1259 110.568 19.8172 110.915 19.3549C110.708 18.1246 110.708 18.1246 111.551 15.9055ZM136.796 15.4976C135.782 16.4766 134.775 17.3251 133.826 18.3661C134.591 18.5749 134.956 19.1427 135.392 19.58C137.125 18.8621 137.422 17.5959 136.796 15.4976ZM132.415 19.7399C132.354 19.6551 132.306 19.6486 132.264 19.7399C132.325 19.7987 132.373 19.7954 132.415 19.7269V19.7399ZM115.347 18.1409C115.347 18.1572 115.325 18.1866 115.331 18.1931C115.338 18.1996 115.389 18.2225 115.393 18.1605C115.393 18.1409 115.363 18.1344 115.347 18.1278V18.1409Z" fill="#DF0000"/>
<path d="M86.4443 12.5247C86.822 12.4758 86.8187 12.7531 87.0318 12.7858C88.2231 11.7056 89.3723 10.5634 90.1278 9.08516C90.315 8.71313 90.5248 8.32153 89.9954 7.98867C89.0897 8.07451 88.2229 8.40225 87.4838 8.9383C84.4492 10.9877 81.9085 13.5266 80.2169 16.8323C79.639 17.9647 79.2258 19.1656 79.455 20.4905C79.6648 21.6914 80.4622 22.38 81.6664 22.3506C82.5851 22.301 83.4839 22.0611 84.3071 21.6457C86.5118 20.58 88.573 19.2344 90.4409 17.6416C90.6516 17.4013 90.9226 17.2232 91.2254 17.126C91.2769 17.3724 91.2658 17.628 91.1929 17.8689C91.1201 18.1098 90.988 18.328 90.8089 18.5031C90.3201 19.044 89.7948 19.55 89.2367 20.0173C87.2998 21.7632 85.1949 23.2807 82.7027 24.1259C81.4113 24.5762 80.0781 24.7785 78.7254 24.3413C78.0171 24.1207 77.3925 23.6864 76.9355 23.0967C76.4785 22.5069 76.2108 21.79 76.1686 21.042C76.0265 18.9894 76.7787 17.2109 77.8602 15.5564C80.304 11.8198 83.6227 9.09168 87.5451 7.10757C88.5136 6.6246 89.5079 6.28521 90.612 6.47449C90.9853 6.52059 91.3347 6.68447 91.6106 6.94283C91.8865 7.20119 92.0747 7.54088 92.1487 7.91362C92.4554 9.108 92.0002 10.1294 91.4158 11.0986C90.1048 13.245 88.356 15.084 86.2861 16.4929C85.7332 16.8896 85.1221 17.1957 84.475 17.4001C83.9746 17.5535 83.4613 17.5894 83.0868 17.1064C82.7124 16.6235 82.8221 16.1274 83.0868 15.6738C83.1866 15.478 83.3138 15.2977 83.4645 15.1386C84.3943 14.2869 85.337 13.4482 86.2796 12.6096C86.3289 12.5714 86.3847 12.5426 86.4443 12.5247Z" fill="#DF0000"/>
<path d="M197.84 17.175C196.581 17.8276 195.842 19.0481 194.893 20.0402C194.402 20.5558 194.015 21.2933 193.166 21.1105C192.41 20.8136 192.52 19.9782 192.068 19.5148C190.502 20.3045 189.398 22.0895 187.49 21.8285C186.622 20.5819 187.649 19.6061 187.41 18.5945L187.461 18.6891L187.423 18.6337C186.022 19.443 184.985 20.8201 183.442 21.3357C181.282 20.0304 181.011 18.3987 182.69 16.6757C184.446 14.8874 186.638 13.8953 189.056 13.3797C189.362 13.2956 189.686 13.3116 189.983 13.4254C190.279 13.5391 190.532 13.7447 190.706 14.0128C190.774 14.5839 190.196 15.2626 190.751 15.726C190.331 17.1195 188.937 17.8178 188.963 19.3908C190.477 19.9259 191.248 18.6663 192.284 18.2225C192.859 17.0216 193.414 15.8468 194.341 14.9233C195.177 14.0944 195.561 14.0683 196.675 14.734C196.352 16.2253 194.631 16.7899 194.286 18.3237C196.407 16.5745 198.328 14.5806 200.839 13.4286C201.485 13.7256 201.466 14.3065 201.576 14.8417C201.104 16.4309 199.083 17.126 199.087 18.96C199.149 19.0376 199.227 19.1015 199.315 19.1476C199.403 19.1937 199.499 19.2212 199.598 19.2282C199.697 19.2352 199.796 19.2217 199.89 19.1885C199.984 19.1553 200.069 19.1031 200.142 19.0351C201.111 18.3008 202.121 17.6547 202.847 16.5745C204.055 14.7797 205.882 13.768 207.932 13.1774C208.378 13.0468 208.813 13.0273 209.169 13.4091C209.491 14.871 208.997 15.7815 207.315 16.8258C206.802 16.9269 206.757 16.2971 206.273 16.196C205.369 16.8225 204.284 17.3316 203.816 18.4803C204.378 19.7856 205.049 20.187 206.247 19.7367C207.945 19.084 209.562 18.3498 210.479 16.519C211.289 14.8874 212.739 13.8888 214.495 13.4482C215.351 13.2361 216.171 13.2328 216.826 14.2412C216.284 16.8519 213.82 17.2794 211.948 18.3269C211.948 19.5931 212.406 20.0173 213.511 19.8248C214.291 19.6491 215.022 19.2965 215.648 18.7936C216.167 18.4183 216.681 18.0397 217.194 17.6645C217.262 17.7001 217.32 17.7525 217.363 17.8168C217.405 17.8811 217.431 17.9552 217.438 18.0323C217.445 18.1095 217.432 18.1871 217.401 18.2579C217.371 18.3288 217.323 18.3907 217.262 18.4379C216.129 19.7106 214.886 20.8429 213.239 21.4042C211.593 21.9655 210.657 21.5478 209.953 19.8868C209.856 19.6584 209.766 19.4332 209.672 19.208C209.026 19.2798 208.704 19.7726 208.287 20.0826C207.54 20.6581 206.709 21.1128 205.824 21.4303C204.21 21.9655 203.135 21.4303 202.573 19.8215C202.457 19.4952 202.363 19.1689 202.231 18.7348C200.659 19.6453 199.713 21.3977 197.857 21.6718C196.698 21.0192 196.497 20.6243 196.888 19.5507C197.169 18.7577 197.56 18.0071 197.902 17.2402C198.06 17.2206 198.124 17.1097 198.16 16.9726L198.225 16.9041L198.163 17.002C197.979 16.9302 197.892 17.0053 197.84 17.175ZM188.446 15.8696C186.942 15.8696 184.572 16.9139 183.762 17.8505C183.297 18.3824 182.7 18.9698 183.507 19.9455C185.56 19.0775 186.932 17.3903 188.446 15.8566V15.8696ZM214.918 14.6361C213.278 15.0799 212.716 15.6151 212.406 16.9465C213.804 16.4831 214.337 16.0132 214.918 14.623V14.6361Z" fill="#DF0000"/>
<path d="M167.055 20.9865C166.461 19.642 166.965 18.5554 167.608 17.5307C168.576 15.9643 169.867 14.6263 171.026 13.2035C171.898 12.1396 172.847 11.1313 173.677 9.82919C172.337 9.62034 171.246 10.0446 170.148 10.3187C170.048 10.7233 170.565 10.5569 170.536 11.0758C169.186 11.4021 167.859 12.1135 166.339 11.8525C165.98 10.0837 166.387 8.88282 167.795 8.23342C171.388 6.58217 175.162 5.87729 179.045 6.88892C182.635 7.83203 184.065 11.748 182.154 15.0114C180.982 17.0216 179.217 18.353 177.173 19.3353C174.751 20.4672 172.145 21.144 169.483 21.3325C168.658 21.4193 167.825 21.3005 167.055 20.9865ZM168.912 18.34C170.029 19.0383 170.032 19.0775 170.787 19.022C173.793 18.8001 176.598 17.9777 179.113 16.2384C179.992 15.6681 180.699 14.8643 181.157 13.9149C181.941 12.1625 181.425 10.9191 179.633 10.2404C178.2 9.72459 176.67 9.54493 175.159 9.71497C173.357 12.7923 170.7 15.1876 168.912 18.34Z" fill="#DF0000"/>
<path d="M161.387 6.41901C161.868 7.07167 161.709 7.68844 161.535 8.28564C161.254 9.16877 160.828 9.99742 160.273 10.7364C159.146 12.3093 158.042 13.8986 156.909 15.5041L157.926 17.1913C158.927 16.9237 159.614 16.0687 160.738 15.8044C160.47 17.312 159.072 17.4719 158.313 18.4934C158.313 21.6131 156.396 23.3884 153.555 24.5795C152.489 23.6657 152.318 22.5627 152.538 21.3684C152.733 20.4628 153.04 19.5857 153.451 18.7577C153.632 18.3563 154.023 17.8994 153.451 17.3871C152.299 17.8309 151.011 17.9157 149.942 18.8066C149.161 19.4593 148.128 19.8313 147.117 19.2211C146.042 18.5684 145.826 17.4458 145.826 16.2841C145.833 15.4459 146.154 14.6414 146.724 14.0324C147.884 12.7742 149.431 11.9505 151.114 11.6958C151.321 11.6338 151.541 11.6264 151.752 11.6744C151.962 11.7224 152.157 11.8241 152.318 11.9699C152.722 13.4482 153.248 14.9069 152.318 16.4864C154.162 15.4519 155.908 14.5284 156.902 12.6585C157.749 10.9642 158.72 9.33665 159.808 7.78961C160.199 7.27074 160.534 6.64744 161.387 6.41901ZM155.114 18.7251C154.401 19.9684 153.652 21.1628 154.652 22.6052C156.266 21.7012 156.912 20.3502 156.534 18.8034C156.078 18.6434 155.585 18.6162 155.114 18.7251ZM150.188 14.0324C148.573 14.796 147.363 15.5825 147.234 17.2957C148.163 18.3237 148.47 18.3041 149.771 17.0738C149.145 16.1209 149.978 15.2561 150.188 14.0324Z" fill="#DF0000"/>
<path d="M285.55 16.7344C284.21 17.3251 283.41 18.5749 282.299 19.4462C281.763 19.8672 281.331 20.4252 280.553 20.4905C279.545 20.1805 279.626 19.4691 279.994 18.7316C280.472 17.7754 281.014 16.8551 281.537 15.9022C281.004 15.6542 280.84 16.0785 280.643 16.2906C279.636 17.374 278.661 18.4868 277.676 19.5865C277.321 19.9847 277.03 20.4774 276.414 20.4579C275.39 20.1772 275.574 19.0873 275.071 18.3954C274.16 18.9698 273.457 19.7464 272.527 20.2131C270.08 21.4499 268.798 20.8658 268.166 18.1539C268.113 17.996 268.052 17.8412 267.981 17.6905C266.513 18.6891 265.47 20.3012 263.559 20.4938C262.116 20.0989 262.726 18.7968 262.422 17.7852C261.192 18.4183 260.466 19.7987 259.107 20.0173C258.158 19.8052 258.096 18.9176 257.59 18.2975C255.995 19.1525 254.833 20.8136 252.967 21.0909C252.092 20.8038 252.069 20.2001 252.179 19.5082C252.266 18.9339 252.695 18.4117 252.453 17.7852L252.495 17.8798L252.47 17.8243C251.13 18.6402 250.093 19.9064 248.612 20.4807C247.498 20.3208 247.236 19.2798 246.568 18.5227C245.835 18.7903 245.364 19.4821 244.673 19.828C244.45 19.9357 244.25 20.0858 244.027 20.1968C242.365 21.0453 241.196 21.0094 240.373 20.0924C239.447 19.0546 239.23 16.9889 240.099 15.7619C241.39 13.9149 243.275 12.8575 245.445 12.3354C245.615 12.3013 245.79 12.3109 245.956 12.3633C246.121 12.4158 246.27 12.5094 246.391 12.6356C246.691 14.0617 246.187 14.9689 244.512 16.0295C244.027 16.085 243.947 15.5074 243.543 15.416C242.875 15.527 241.487 16.8421 241.064 17.7623C241.632 18.9535 242.21 19.3222 243.34 18.9502C244.895 18.4974 246.287 17.5999 247.349 16.3656C249.128 14.2249 251.546 13.148 254.2 12.6063C254.506 12.5278 254.829 12.5603 255.113 12.698C255.397 12.8358 255.625 13.0701 255.756 13.3601C255.601 13.8822 255.433 14.4892 255.714 15.0211C255.365 16.3036 254.055 16.9791 253.967 18.2323C254.206 18.7674 254.578 18.9078 254.981 18.7348C256.114 18.2551 257.205 17.7264 257.77 16.4896C258.794 14.2608 260.776 13.3503 262.936 12.6846C263.468 12.5214 263.836 13.0109 264.382 12.9228C265.512 11.2389 266.038 9.10145 267.794 7.83853C268.082 7.63294 268.44 7.64926 268.853 8.0017C269.192 8.70658 268.714 9.34293 268.346 9.9597C267.346 11.6077 266.287 13.223 265.26 14.8547C264.806 15.5064 264.486 16.2431 264.317 17.0216C264.224 17.5796 264.069 18.2192 264.705 18.6989C266.125 18.5553 266.894 17.1162 268.256 16.7409C270.364 13.086 273.221 11.6403 275.035 13.3275C274.903 15.0244 274.903 15.0244 270.328 17.5926C270.328 18.774 270.822 19.3255 271.852 19.022C273.466 18.5488 274.945 17.808 275.771 16.1861C276.143 15.3734 276.669 14.6419 277.318 14.0323C277.963 13.4711 278.648 13.223 279.532 13.706C279.268 15.3083 277.486 15.9316 277.234 17.547C279.439 15.9153 281.153 13.631 283.9 12.4823C285.456 14.202 283.316 15.1876 283.216 16.63C285.056 15.4584 286.505 13.8822 288.284 12.8608C289.33 14.0389 289.346 14.2999 288.497 15.3148C288.055 15.8468 287.593 16.3624 287.174 16.9139C286.851 17.3544 286.528 17.8341 287.119 18.4379C288.536 18.3856 289.417 17.1064 290.67 16.6756C291.584 14.9069 292.817 13.4841 294.544 12.6063C294.776 12.6588 294.987 12.78 295.15 12.9544C295.313 13.1288 295.422 13.3484 295.461 13.5853C294.841 15.4291 292.714 16.1078 292.026 18.0365C292.952 18.2845 293.537 17.8146 294.069 17.3446C295.325 16.2384 296.549 15.0897 297.782 13.954C298.14 13.6277 298.46 13.2459 298.96 13.0925C299.822 13.6081 299.558 14.2902 299.199 14.8841C298.46 16.1111 297.63 17.2826 296.878 18.5031C296.584 18.9796 296.023 19.381 296.255 20.0826L296.165 20.0467L296.223 20.0793L300 16.7181C299.845 17.9516 294.076 24.4293 292.898 25.0135C292.226 24.3314 292.375 23.6037 292.797 22.8727C293.411 21.7991 294.047 20.7385 294.663 19.6649C294.922 19.2113 295.157 18.7446 295.564 17.9842C294.166 18.6989 293.372 19.7073 292.242 20.1903C291.019 20.0206 290.902 18.8849 290.386 17.9059C288.698 18.8849 287.355 20.4252 285.469 20.8429C285.224 20.7745 285.001 20.6419 284.823 20.4585C284.645 20.2752 284.519 20.0475 284.456 19.7987C284.401 18.6075 285.266 17.7689 285.492 16.7083L285.55 16.7344ZM253.454 14.9852C251.737 15.3344 250.068 15.8174 248.799 17.1129C248.318 17.6024 247.782 18.2355 248.618 19.1264C250.629 18.2551 251.992 16.5941 253.454 14.9852ZM263.565 14.6328C260.437 15.2202 259.265 16.3167 259.636 18.2225C261.215 17.4099 262.393 16.2645 263.565 14.6328ZM273.134 13.9116C271.975 14.2379 271.052 14.8286 270.625 16.2743C271.923 15.7717 272.863 15.2169 273.134 13.9116Z" fill="#DF0000"/>
<path d="M228.277 13.0534C228.446 13.1951 228.645 13.2978 228.858 13.3541C229.071 13.4105 229.293 13.4192 229.51 13.3797C232.842 10.9844 235.776 7.76025 239.576 5.95236C240.657 6.48755 240.441 7.16632 240.099 7.79941C239.453 8.97421 238.772 10.1164 238.104 11.2749C237.811 11.6659 237.592 12.1085 237.458 12.5802C237.72 13.1774 238.427 12.5802 238.749 13.1807C238.533 13.9443 237.887 14.5154 237.636 15.1028C236.99 15.5368 236.406 15.3834 235.789 15.6118C235.284 16.4215 234.864 17.2822 234.536 18.1801C235.56 18.7414 236.005 17.4654 237.142 17.6253C235.85 19.133 234.578 20.2001 232.638 20.5623C230.679 18.8425 233.106 17.4197 233.016 15.7913C231.492 15.7172 229.965 15.7423 228.445 15.8664C227.263 17.1097 225.949 18.5097 224.609 19.8901C224.158 20.3451 223.678 20.7703 223.173 21.1628C222.721 21.5152 222.224 21.6719 221.659 21.1367C222.049 19.7041 223.128 18.8523 224.341 18.229C225.201 17.7761 225.937 17.1145 226.482 16.3037C226.046 15.7848 225.339 16.2188 224.868 15.5139C225.652 14.2739 226.569 13.1676 228.277 13.0762V13.0534ZM234.901 13.0534L237.619 8.52714C235.944 9.46371 232.845 12.0744 232.167 13.0338C232.286 13.1047 232.418 13.1533 232.554 13.1774C233.287 13.1578 234.013 13.1187 234.901 13.0762V13.0534Z" fill="#DF0000"/>
</svg>
