<svg width="230" height="209" viewBox="0 0 230 209" fill="none" xmlns="http://www.w3.org/2000/svg">
<path d="M207.729 101.292C207.729 102.787 207.655 104.282 207.729 105.766C207.871 108.011 206.957 110.165 207.281 112.411C206.713 113.133 206.872 113.979 206.855 114.792C206.855 115.361 205.845 114.895 205.981 115.685C206.022 115.88 206.022 116.083 205.981 116.278C205.94 116.474 205.859 116.659 205.743 116.822C205.062 117.356 205.175 118.038 205.175 118.726V119.368C205.175 120.857 205.499 122.449 205.09 123.819C204.681 125.189 205.169 126.706 204.324 127.968C204.505 129.918 203.671 131.782 203.87 133.76C204.023 135.307 203.87 136.881 203.91 138.444C203.91 139.251 203.7 139.7 202.803 139.877C201.793 140.076 202.031 140.167 202.133 141.366C202.218 142.383 203.115 143.003 203.047 143.992C203.047 144.128 203.002 144.259 202.979 144.39C202.834 144.323 202.684 144.27 202.53 144.231C201.719 144.117 201.543 143.407 201.395 142.827C201.248 142.247 200.907 142.372 200.612 142.418C200.18 142.549 199.818 142.846 199.605 143.245C199.392 143.644 199.346 144.111 199.477 144.543C200.09 145.908 200.153 145.936 199.477 147.442C199.273 147.908 199.148 148.176 199.568 148.477C199.795 148.609 200.034 148.717 200.283 148.801C200.357 148.619 200.527 148.426 200.499 148.267C200.317 147.403 200.828 146.686 200.936 145.885C201.032 145.214 201.446 145.032 202.071 144.936C202.814 144.822 203.064 145.174 203.206 145.754C203.626 147.573 204.715 149.102 205.385 150.819C206.273 152.836 207.418 154.729 208.79 156.452C210.283 158.492 212.025 160.317 213.518 162.358C214.512 163.61 215.716 164.68 217.076 165.518C218.387 166.382 219.346 167.553 220.481 168.576C221.003 169.059 221.491 169.577 221.991 170.082C222.343 170.441 222.621 170.816 223.188 170.27C223.279 170.188 223.387 170.126 223.505 170.089C223.622 170.052 223.746 170.041 223.868 170.057C223.989 170.073 224.106 170.114 224.211 170.18C224.315 170.245 224.404 170.332 224.471 170.435C224.624 170.623 224.818 170.772 225.039 170.871C225.26 170.97 225.501 171.015 225.742 171.003C226.679 171.06 227.604 171.327 228.546 171.39C229.851 171.469 230.203 171.873 229.896 173.158C229.862 173.283 229.789 173.482 229.715 173.493C228.393 173.681 228.461 175.198 227.502 175.767C226.542 176.335 225.839 177.21 224.936 177.83C224.015 178.47 223.034 179.02 222.008 179.473C221.111 179.865 220.561 179.359 220.073 178.279C219.84 177.762 219.829 177.085 218.989 176.784C218.421 176.574 218.081 175.647 217.604 175.079C217.457 174.84 217.248 174.647 216.998 174.52C216.749 174.392 216.47 174.336 216.191 174.357C215.816 174.363 215.445 174.281 215.108 174.117C214.771 173.953 214.477 173.712 214.25 173.413C212.99 172.053 211.542 170.881 209.948 169.935C209.38 169.616 209.38 169.099 209.585 168.485C210.186 166.672 209.619 165.893 207.774 165.848C206.401 165.814 205.056 165.848 203.802 166.587C203.688 166.671 203.556 166.728 203.417 166.754C203.277 166.78 203.134 166.773 202.997 166.736C202.861 166.698 202.734 166.63 202.628 166.536C202.522 166.442 202.438 166.325 202.383 166.195C202.128 165.626 201.923 165.257 201.248 165.416C200.726 165.535 200.504 165.319 200.521 164.739C200.561 163.244 200.567 161.755 200.521 160.26C200.465 159.751 200.521 159.236 200.685 158.751C200.848 158.266 201.116 157.823 201.469 157.452C201.605 157.31 201.798 157.123 201.798 156.958C201.798 155.406 201.742 153.86 201.696 152.314C201.696 152.263 201.611 152.2 201.549 152.166C200.919 151.779 202.025 150.461 200.862 150.58C200.17 150.648 200.765 151.717 200.516 152.217C200.001 153.289 199.433 154.334 198.813 155.349C198.388 156.042 197.898 156.693 197.349 157.293C196.662 158.038 196.674 157.981 196.169 157.026C195.601 155.963 195.533 154.752 195.068 153.644C194.159 151.467 193.677 149.096 192.951 146.857C192.553 145.586 192.243 144.289 192.026 142.975C191.929 142.406 191.889 141.792 192.849 141.968C193.808 142.145 194.256 141.4 194.551 140.724C194.826 140.038 194.975 139.308 194.988 138.569C195.039 136.296 195.045 134.022 194.988 131.748C194.988 130.952 194.602 130.162 194.602 129.367C194.538 126.189 195.537 123.082 197.44 120.539C197.667 120.226 198.007 119.811 197.939 119.487C197.61 116.935 198.643 114.73 199.528 112.456C200.275 110.777 200.63 108.95 200.567 107.113C200.453 106.452 200.297 105.799 200.101 105.158C199.937 104.299 199.812 103.452 199.67 102.566C199.528 101.679 199.454 100.821 199.233 99.9736C198.705 97.9273 198.161 95.881 197.531 93.8688C197.26 93.3297 196.853 92.871 196.35 92.5387C195.567 91.9021 194.699 91.3734 193.898 90.7595C192.843 89.9524 192.519 88.7985 192.457 87.5252C192.406 86.5817 192.394 86.5134 191.39 86.5817C190.601 86.6328 189.937 86.2463 189.216 86.1553C187.173 85.8882 185.431 86.8431 183.762 87.8606C182.303 88.6924 180.922 89.6551 179.637 90.7368C178.076 92.101 176.118 92.5273 174.336 93.38C174.211 93.4368 173.802 93.1981 173.768 93.0332C173.553 92.3284 174.188 91.328 173.439 90.9016C172.906 90.5947 172.054 90.805 171.345 90.8505C170.967 90.9292 170.575 90.8959 170.216 90.7545C169.857 90.6132 169.547 90.3699 169.325 90.0547C169.051 89.7276 168.753 89.4216 168.434 89.1395C167.48 88.1505 167.497 87.1046 168.502 86.0814C170.295 84.2682 172.111 82.4663 173.91 80.653C174.245 80.3177 174.648 80.0846 174.62 79.448C174.586 78.7034 174.444 78.6408 173.678 77.7427C171.975 75.6907 169.705 76.5661 167.633 76.3671C167.435 76.9356 166.89 77.1686 166.459 77.504C165.692 78.1349 165.102 78.9819 164.313 79.573C163.933 79.8325 163.653 80.2164 163.524 80.6592C163.395 81.1019 163.423 81.576 163.604 82.0002C163.869 82.7018 163.985 83.451 163.945 84.2C163.973 85.2857 163.615 85.5983 162.594 85.2913C159.921 84.4807 157.42 83.184 155.216 81.4659C155.045 81.3392 154.895 81.1856 154.773 81.0111C154.642 80.8522 154.579 80.648 154.597 80.4427C154.631 80.312 154.892 80.1983 155.063 80.1699C155.993 80.0107 156.941 79.9311 157.861 79.7151C158.349 79.6015 159.16 79.3059 159.183 79.0387C159.245 78.2543 159.563 77.3335 158.916 76.6286C158.723 76.4183 158.513 76.225 158.315 76.0261C157.628 75.3383 156.828 74.7471 157.094 73.5307C157.231 72.9112 156.726 72.5531 156.096 72.4905C153.899 72.2575 152.35 73.1783 151.135 75.0882C150.466 76.1398 150.386 77.3619 149.932 78.4305C149.58 79.2775 149.62 80.2892 149.456 81.2214C149.432 81.4856 149.327 81.7357 149.155 81.9377C148.156 82.7846 147.486 83.9783 146.198 84.5467C145.658 84.8892 145.194 85.3402 144.836 85.8711C142.969 88.0539 140.648 89.708 138.389 91.4132C137.106 92.3467 135.643 93.0029 134.093 93.3402C132.237 93.7665 130.472 92.6467 129.462 90.6856C129.161 90.1172 128.894 89.509 128.627 88.9008C128.61 88.8021 128.613 88.701 128.635 88.6034C128.658 88.5057 128.699 88.4136 128.758 88.3324C131.028 84.8139 133.111 81.2215 135.058 77.5324C135.659 76.3956 136.159 75.037 137.328 74.1901C137.405 74.0924 137.458 73.9769 137.481 73.854C137.504 73.7311 137.496 73.6045 137.458 73.4853C137.275 73.0551 137.026 72.6562 136.72 72.3029C135.438 70.8535 132.333 70.3987 130.478 71.1661C129.91 71.3935 129.836 71.5981 129.91 72.0074C130.063 72.86 130.268 73.7126 130.478 74.5482C130.523 74.7358 130.744 74.8949 130.739 75.0712C130.717 75.4773 130.669 75.8817 130.597 76.2819C130.234 76.1568 129.87 76.0432 129.518 75.901C128.784 75.5664 128.102 75.1281 127.492 74.5994C123.889 71.7118 120.682 68.3467 116.568 66.0731C115.778 65.6302 115.174 64.9182 114.865 64.0665C114.62 63.5096 114.269 63.0058 113.832 62.583C112.947 61.628 112.924 61.6508 112.362 62.1623C111.505 62.9524 111.346 63.7937 111.931 64.4985C112.022 64.6073 112.123 64.7081 112.232 64.7998C112.798 65.2025 113.239 65.7568 113.505 66.3993C113.771 67.0417 113.851 67.7462 113.736 68.432C113.681 68.7444 113.724 69.0662 113.861 69.3526C113.997 69.6389 114.219 69.8755 114.496 70.0293C115.546 70.7284 116.624 71.3878 117.737 71.9789C118.066 72.1552 118.571 71.9789 118.963 72.104C119.052 72.1801 119.121 72.2782 119.162 72.3888C119.203 72.4993 119.214 72.6186 119.195 72.7349C118.872 73.3886 116.988 73.9798 116.318 73.6274C114.992 72.9953 113.571 72.5881 112.113 72.4223C110.977 72.2404 109.729 72.3882 108.679 72.0244C107.621 71.7347 106.523 71.6157 105.427 71.672C104.224 71.581 103.015 71.581 101.812 71.672C100.546 71.8368 99.5419 71.2173 98.5771 70.7114C97.6861 70.2566 96.988 69.4267 96.1708 68.8015C94.6157 67.6021 93.0437 66.4312 91.4717 65.2489C91.3695 65.1693 91.239 65.1124 91.1425 65.0272C89.491 63.5209 87.8282 62.0316 86.2107 60.4798C85.8521 60.0796 85.5469 59.6344 85.3027 59.1554C85.0984 58.82 85.0757 58.5529 85.5751 58.3994C86.4263 58.1394 87.1759 57.621 87.7203 56.9158C87.9385 56.6657 88.0855 56.3614 88.146 56.0348C88.2755 55.4829 88.2579 54.9066 88.0949 54.3636C87.8906 53.9487 87.2209 53.7952 86.8293 53.4257C86.3235 52.8724 85.6374 52.5177 84.8941 52.4253C84.6388 52.3577 84.3996 52.2399 84.1903 52.0786C83.4923 51.6977 83.6228 50.9076 83.288 50.3222C82.4537 50.5041 81.9997 49.9356 81.54 49.4127C81.4727 49.3359 81.4235 49.245 81.396 49.1466C81.3685 49.0482 81.3634 48.9449 81.3811 48.8443C81.4349 48.7666 81.5071 48.7035 81.5914 48.6608C81.6756 48.6182 81.7691 48.5972 81.8635 48.5999C82.9475 48.7078 84.0598 48.31 85.1154 48.975C85.4729 49.2024 86.0915 49.0262 86.5853 48.975C86.6364 48.975 86.7499 48.6737 86.6988 48.6112C85.4109 47.0795 83.8925 45.7581 82.1983 44.6948C81.5868 44.3954 80.9086 44.2584 80.229 44.2969C79.7636 44.2969 79.6615 44.4788 79.6331 44.9108C79.5582 45.5749 79.4175 46.2299 79.2131 46.8662C78.9124 47.8268 78.447 47.9177 77.7319 47.2982C77.0168 46.6786 76.9828 45.7521 76.6877 44.9563C75.8194 42.5689 75.4221 40.0622 74.9056 37.5668C74.724 36.6915 74.7467 35.782 74.4913 34.9748C74.2089 34.2084 74.0872 33.3918 74.1338 32.5761C74.1849 32.0475 73.8784 31.4734 74.4005 30.9845C74.9485 30.383 75.6676 29.9644 76.4607 29.7852C77.2644 29.7151 78.0591 29.5647 78.8329 29.3361C79.5925 29.0395 80.2831 28.5898 80.862 28.0148C81.4409 27.4399 81.8957 26.752 82.1983 25.9938C82.4026 25.5106 82.7658 24.857 82.5786 24.4932C82.1705 23.7036 81.6202 22.9963 80.9554 22.4071C80.498 22.0257 79.9403 21.7849 79.3493 21.7136C78.0599 21.5563 76.7544 21.8258 75.6321 22.481C73.6287 23.6178 71.5573 24.6182 69.5028 25.6641C68.9785 25.9343 68.4361 26.1679 67.8797 26.3633C67.7825 26.3797 67.6828 26.3706 67.5902 26.3367C67.4977 26.3028 67.4156 26.2453 67.3519 26.17C67.3159 26.0753 67.3059 25.9726 67.3228 25.8726C67.3398 25.7727 67.3831 25.6791 67.4484 25.6016C68.3848 24.6296 69.3666 23.7031 70.286 22.7197C70.732 22.2106 71.1345 21.6649 71.4892 21.0883C71.5437 21.0064 71.5698 20.9088 71.5635 20.8106C71.5572 20.7124 71.5189 20.6189 71.4544 20.5446C71.3899 20.4703 71.3028 20.4193 71.2066 20.3995C71.1103 20.3796 71.0102 20.392 70.9216 20.4347C69.7298 21.2873 68.2202 21.617 67.2043 22.8106C66.5824 23.543 65.8275 24.1505 64.9796 24.6012C64.2213 24.9946 63.6498 25.6733 63.3906 26.4883C62.9536 27.4774 61.7731 28.1481 60.8764 28.9098C59.9798 29.6715 58.9298 30.2342 58.1807 31.0868C56.2228 33.3094 53.6405 34.4178 50.9732 35.3102C48.6293 36.0832 46.3195 36.97 43.8053 37.0155C42.2446 37.959 40.8996 37.1178 39.4184 36.6574C38.4649 36.3561 38.9019 35.8331 38.8168 35.3955C38.7317 34.9578 39.1289 34.9578 39.4694 34.8668C41.9665 34.179 44.1402 32.775 46.4557 31.6894C47.0116 31.4941 47.543 31.2347 48.0391 30.9163C48.4989 30.4958 48.9188 30.0334 49.2933 29.5351C48.7258 29.5009 48.1582 29.4498 47.6304 29.4441C46.0641 29.4441 44.5885 29.9443 43.0902 30.3138C42.7838 30.3877 42.3184 30.6435 42.29 30.8822C42.1765 31.9452 41.2458 32.1327 40.5875 32.4113C38.5725 33.3187 36.6991 34.5134 35.0257 35.9582C33.6056 37.0919 32.1261 38.1488 30.5934 39.1243C29.9093 39.5316 29.1665 39.8307 28.3914 40.011C25.8222 40.7427 23.0985 40.7289 20.5368 39.9712C20.2313 39.8488 19.9162 39.7518 19.5947 39.6813C18.0965 39.5222 16.5869 39.4199 15.0943 39.2209C14.9036 39.195 14.7205 39.129 14.5571 39.0271C14.3938 38.9252 14.2538 38.7898 14.1465 38.6298C14.1026 38.4335 14.1023 38.23 14.1454 38.0336C14.1885 37.8372 14.2742 37.6526 14.3962 37.4929C14.868 36.9495 15.3722 36.4351 15.9058 35.9525C16.0009 35.8143 16.0754 35.6631 16.1272 35.5035C15.9229 35.5035 15.6959 35.3614 15.5313 35.4239C13.5676 36.1685 11.4962 36.5152 9.5666 37.4759C7.01274 38.7548 4.27727 38.9879 1.81422 36.9643C1.5937 36.8164 1.34042 36.7247 1.07644 36.6971C0.0151673 36.4982 0.0889454 36.5039 0.0151673 35.4466C-0.0268458 35.1022 0.0187631 34.7528 0.147753 34.4308C0.276744 34.1088 0.484927 33.8247 0.752949 33.6049C1.55316 32.9001 2.22851 32.0645 3.02304 31.3654C5.29314 29.4043 6.74033 26.818 8.53938 24.4818C8.60748 24.3909 8.53938 24.1805 8.59046 24.0782C9.05738 23.3322 9.33593 22.4836 9.40202 21.6056C9.36229 21.2475 9.36229 20.861 9.89576 20.9178C10.2971 20.9597 10.6952 21.028 11.0876 21.1224C13.7947 21.8045 16.1953 23.254 18.6413 24.4648C19.9353 25.1014 21.1781 25.6698 22.6424 25.6016C22.9094 25.6085 23.1721 25.6705 23.4142 25.7835C23.8188 25.9675 24.2581 26.0627 24.7025 26.0627C25.1469 26.0627 25.5861 25.9675 25.9907 25.7835C26.6903 25.5246 27.4592 25.5246 28.1587 25.7835C28.9342 26.0372 29.767 26.057 30.5536 25.8403C30.8131 25.7001 31.1075 25.6379 31.4015 25.6611C31.6954 25.6843 31.9764 25.7919 32.2108 25.9711C32.4889 26.153 32.8464 26.1075 32.8124 26.5793C32.7897 26.9351 32.7897 27.2921 32.8124 27.6479C32.8521 28.2163 33.1302 28.2959 33.6353 27.9605C34.4128 27.449 35.1619 26.6475 36.0019 26.5281C37.1369 26.3633 38.2209 25.7721 39.407 25.9995C39.9709 26.0911 40.5457 26.0911 41.1096 25.9995C41.4799 25.9374 41.859 25.9512 42.2238 26.0401C42.5886 26.1291 42.9317 26.2912 43.2321 26.5167C43.9813 27.0852 44.4693 26.9772 45.0142 26.3519C45.156 26.1927 45.3206 26.0563 45.4625 25.8972C46.2854 24.9763 47.1083 24.1123 48.4363 25.1469C48.5669 25.2492 48.8563 25.198 49.0663 25.1469C50.5207 24.9315 51.9625 24.6374 53.3851 24.2658C54.7025 23.8584 55.9629 23.2854 57.1365 22.5605C58.5662 21.6491 59.9195 20.6226 61.1829 19.4911C63.3338 17.5926 65.3258 15.5121 67.5165 13.6534C69.5766 11.9084 71.597 10.0837 74.009 8.80479C74.9547 8.20536 75.954 7.69538 76.9941 7.28143C79.3621 6.57144 81.8896 6.59919 84.2414 7.361C85.8418 7.84985 86.8804 9.15153 88.3333 9.82226C88.4581 9.8791 88.4468 10.1917 88.5546 10.3509C89.6896 11.9993 90.0869 14.0513 91.5 15.5292C91.4092 16.3307 91.8973 16.9218 92.2549 17.5585C92.6124 18.1951 92.0619 18.9852 92.8224 19.4797C92.8621 19.4797 92.7259 19.9856 92.6351 19.997C91.6249 20.122 92.0222 20.4688 92.323 21.0656C92.8564 22.1172 93.7134 23.0039 93.8836 24.2544C94.0028 25.1696 94.3774 26.0506 94.5249 26.9658C94.7236 28.2447 94.7974 29.5464 94.9733 30.8311C95.0527 31.3995 95.2741 31.9679 95.3819 32.5761C95.4897 33.1843 95.1436 33.8664 95.8132 34.3155C95.812 35.4077 95.9455 36.4959 96.2105 37.5555C96.6815 40.1651 97.3959 42.7247 98.3444 45.2007C98.8495 46.6161 99.8767 47.139 101.182 47.2982C101.749 47.348 102.297 47.5335 102.778 47.8392C103.258 48.1448 103.659 48.5616 103.946 49.0546C104.967 50.6291 106.284 51.8967 108.356 52.0104C108.554 51.9964 108.752 52.0441 108.923 52.1468C110.013 53.2495 111.42 53.636 112.867 53.9373C113.259 54.0408 113.66 54.1055 114.065 54.1306C115.342 54.1306 116.619 54.1988 117.89 54.1306C120.479 53.9421 123.024 53.3595 125.438 52.4026C127.62 51.6098 129.665 50.4802 131.499 49.0546C131.909 48.6861 132.349 48.3533 132.816 48.0598C133.153 47.845 133.56 47.7715 133.951 47.8552C134.155 47.9229 134.328 48.0617 134.438 48.2464C134.549 48.431 134.589 48.6492 134.552 48.8613C134.172 51.3169 135.046 53.5565 135.846 55.7847C136.13 56.5805 136.147 57.5695 137.208 57.9845C137.555 58.1209 137.776 58.712 137.935 59.1213C138.673 61.0937 139.365 63.1002 140.08 65.0556C140.178 65.2753 140.293 65.4863 140.426 65.6865C140.672 65.5883 140.901 65.45 141.102 65.2773C142.186 63.8903 142.623 62.2249 143.065 60.5537C143.599 58.5074 144.2 56.4781 144.768 54.4375C146.425 52.971 145.421 51.4817 144.768 50.038C144.251 48.9011 143.633 47.8041 143.065 46.6956C141.822 46.5494 140.57 46.4962 139.32 46.5365C137.555 46.707 135.858 46.2523 134.212 45.9681C132.566 45.6839 131.312 44.2628 130.778 42.5576C130.245 40.8523 129.411 39.039 129.411 37.1178C128.781 36.3334 129.24 35.3159 128.928 34.5485C128.657 33.7769 128.532 32.9616 128.559 32.1441C128.557 32.0063 128.54 31.8691 128.508 31.7348C128.06 29.9614 128.077 30.0296 129.672 29.4214C130.794 29.044 131.861 28.5183 132.844 27.8582C133.627 27.2898 134.212 27.1477 135.069 27.5967C135.279 27.712 135.512 27.7775 135.751 27.7884C135.99 27.7992 136.229 27.7551 136.448 27.6593C137.452 26.7498 137.975 27.5285 138.525 28.1424C139.278 28.9334 140.307 29.4019 141.397 29.4498C142.265 29.5464 143.099 29.7454 143.99 29.8591C144.467 29.9273 145.125 29.7397 145.398 29.9898C145.67 30.2399 145.494 30.9049 145.596 31.3711C145.875 32.6045 146.164 33.8607 146.527 35.043C146.782 36.1108 146.889 37.2087 146.845 38.3058C146.885 39.4085 146.38 39.8007 145.307 39.67C145.104 39.6486 144.909 39.5784 144.739 39.4653C144.172 39.0333 143.848 39.1243 143.871 39.903C143.894 40.329 143.894 40.756 143.871 41.182C143.814 41.9209 144.081 42.6826 143.485 43.3818C143.406 43.5752 143.369 43.7837 143.378 43.9928C143.387 44.2018 143.441 44.4064 143.536 44.5925C143.61 44.7687 144.149 44.7687 144.484 44.7801C144.819 44.7914 145.211 44.7801 145.154 45.303C144.961 47.0083 146.022 48.2247 146.76 49.5377C147.288 50.4813 148.184 51.2089 148.82 52.1013C150.789 54.8809 153.44 57.0068 155.766 59.4396C156.669 60.2968 157.616 61.1051 158.604 61.8611C159.495 62.6171 160.205 63.5379 161.254 64.1745C162.475 64.9135 163.479 66.0276 164.569 67.0166C164.83 67.2497 165.04 67.6874 165.324 67.7385C166.311 67.9091 166.345 68.5912 166.561 69.3585C166.691 69.8133 166.986 70.7057 167.957 70.4101C168.308 70.3503 168.667 70.3503 169.018 70.4101C171.233 70.4565 173.443 70.6178 175.641 70.8933C177.17 71.0764 178.686 71.3517 180.181 71.7175C181.634 72.1438 183.132 72.3825 184.574 72.8998C185.516 73.2408 186.685 73.0305 187.741 72.9453C188.7 72.877 189.443 72.9851 189.858 73.9912C189.983 74.2451 190.188 74.451 190.441 74.5772C190.694 74.7035 190.982 74.7432 191.259 74.6903C192.491 74.588 193.603 75.1053 194.761 75.4463C195.567 75.685 196.373 76.1057 197.332 75.9806C198.615 75.8158 199.477 76.3728 200.294 77.5495C201.324 79.0231 202.271 80.5526 203.132 82.1309C203.762 83.2678 203.876 84.5297 204.33 85.6949C204.846 87.025 204.664 88.4802 205.124 89.8387C205.306 90.356 205.311 90.8789 205.782 91.2768C206.679 92.0328 206.594 93.4709 207.712 94.1189C207.865 94.2098 207.712 94.7896 207.712 95.1477L207.729 101.292Z" fill="#DF0000"/>
<path d="M117.09 177.171C117.09 177.739 117.09 178.308 117.09 178.876C117.09 179.445 117.271 180.121 117.027 180.547C116.783 180.974 116.125 181.019 115.626 181.167C115.296 181.264 114.859 181.207 114.973 181.735C115.353 183.441 113.951 184.066 113.083 185.004C112.668 185.34 112.23 185.648 111.772 185.925C111.034 186.493 110.206 186.55 109.604 185.851C108.872 184.934 107.975 184.163 106.96 183.577C106.506 183.338 106.279 182.616 106.034 182.076C105.467 180.883 104.928 179.678 104.434 178.478C103.934 177.359 103.72 176.133 103.811 174.911C103.903 173.688 104.296 172.508 104.956 171.475C105.466 170.585 105.686 169.558 105.586 168.537C105.586 168.36 105.444 168.031 105.37 168.031C104.752 168.031 103.946 167.889 103.554 168.213C102.533 169.082 101.375 169.918 101.324 171.526C101.263 171.919 101.122 172.294 100.91 172.629C100.799 172.852 100.643 173.049 100.45 173.206C100.258 173.363 100.034 173.478 99.794 173.542C99.554 173.606 99.3031 173.618 99.058 173.577C98.813 173.537 98.5794 173.444 98.3729 173.306C98.2466 173.206 98.1464 173.076 98.0812 172.929C98.0159 172.781 97.9875 172.62 97.9983 172.459C98.8042 170.287 99.1334 167.985 99.9052 165.791C100.16 164.82 100.359 163.835 100.501 162.841C100.56 162.517 100.673 162.206 100.836 161.92C101.301 161.164 101.324 160.715 100.802 160.01C100.433 159.516 99.7577 159.084 99.6669 158.561C99.5363 157.481 98.9858 156.492 99.1618 155.332C99.3888 153.82 98.5943 152.382 98.7305 150.819C98.8496 149.26 98.8496 147.694 98.7305 146.135C98.6453 144.737 99.0142 143.412 99.1731 142.048C99.332 140.684 99.2639 139.468 99.4853 138.155C99.7066 136.842 99.9279 135.46 100.053 134.096C100.22 132.979 100.444 131.871 100.722 130.776C101.018 129.333 101.341 127.906 101.693 126.479C102.535 122.869 103.643 119.325 105.007 115.878C105.705 114.173 106.273 112.422 106.852 110.677C107.022 110.166 107.198 109.717 107.658 109.614C108.605 109.398 108.656 108.756 108.588 108.023C108.469 106.789 108.98 105.863 109.655 104.828C111.645 101.62 114.043 98.6853 116.789 96.0972C118.764 94.3181 120.694 92.4366 123.032 91.1349C123.724 90.7541 124.541 90.0833 125.557 90.7882C125.892 91.0212 126.017 91.1349 126.051 91.5101C126.048 92.1855 125.818 92.8402 125.398 93.3688C125.064 93.9568 124.66 94.5026 124.195 94.9945C124.035 95.1807 123.928 95.407 123.886 95.6492C123.844 95.8915 123.869 96.1406 123.957 96.37C124.019 96.6429 124.49 96.8418 124.797 97.0351C125.103 97.2284 125.325 97.1943 125.512 97.3534C126.119 97.865 126.562 97.6717 127.141 97.2284C128.304 96.3303 128.991 96.6258 129.451 98.0924C129.61 98.4509 129.746 98.8192 129.859 99.1951C130.08 100.366 130.177 100.429 131.21 99.9397C131.448 99.826 131.709 99.7635 131.931 99.6328C132.322 99.4054 132.549 98.6267 133.066 99.0302C133.327 99.2292 133.242 99.9283 133.259 100.406C132.951 101.959 132.451 103.467 131.772 104.896C131.647 105.067 131.386 105.181 131.335 105.357C130.886 106.96 129.791 107.727 128.191 107.903C128.02 107.903 127.89 108.239 127.731 108.403C127.519 108.641 127.261 108.833 126.973 108.968C126.685 109.103 126.373 109.179 126.055 109.191C125.737 109.202 125.42 109.15 125.123 109.036C124.826 108.922 124.555 108.75 124.326 108.529C124.054 108.199 123.746 107.901 123.406 107.642C122.771 107.284 122.01 106.693 121.352 107.073C120.694 107.454 119.451 107.125 119.212 108.295C119.042 109.125 118.424 108.625 118.015 108.71C117.504 108.818 117.544 108.415 117.493 108.051C117.408 107.483 117.209 106.914 117.084 106.306C116.903 105.499 116.585 105.425 115.694 105.613C113.707 106.033 112.334 107.466 110.717 108.494C110.376 108.71 110.053 108.943 109.706 109.148C109.36 109.353 109.303 109.682 109.61 109.967C109.803 110.143 109.848 110.495 110.382 110.177C111.32 109.531 112.427 109.177 113.566 109.159C113.899 109.158 114.228 109.238 114.525 109.393C114.871 109.614 115.257 110.006 114.752 110.393C114.093 110.893 114.071 111.53 114.093 112.263C114.127 113.559 114.36 113.735 115.762 113.229C117.164 112.723 118.56 112.093 119.979 111.592C121.03 111.146 122.152 110.894 123.293 110.848C123.747 110.848 123.957 110.995 123.86 111.45C123.753 112.178 124.184 113.008 123.457 113.639C123.389 113.701 123.457 114.071 123.588 114.207C124.683 115.27 124.82 116.629 124.689 118.004C124.576 119.141 125.007 120.164 125.137 121.244C125.268 122.324 124.916 123.421 125.518 124.501C125.79 124.99 125.518 125.763 125.58 126.394C125.642 126.911 125.994 127.423 125.966 127.923C125.807 130.35 126.67 132.595 127.328 134.835C127.896 136.66 128.338 138.524 128.9 140.349C129.575 142.554 130.2 144.794 130.807 147.028C131.306 148.877 131.83 150.719 132.379 152.553C132.867 154.207 132.799 156.003 133.65 157.566C133.667 157.637 133.667 157.711 133.65 157.782C133.514 159.874 134.411 161.892 134.065 163.995C134.01 164.225 133.872 164.428 133.679 164.563C133.599 164.62 133.264 164.455 133.179 164.313C132.226 162.648 131.448 160.948 132.237 158.976C132.282 158.851 132.402 158.657 132.362 158.618C131.647 157.896 131.023 156.839 130.149 156.566C128.281 155.969 127.407 156.566 126.499 158.322C126.308 158.669 126.14 159.028 125.994 159.396C125.62 160.482 124.859 160.778 123.724 160.778C121.528 160.778 119.479 160.164 117.368 159.692C115.342 159.237 113.56 158.197 111.556 157.742C110.831 157.564 110.177 157.167 109.684 156.605C108.566 155.433 107.149 154.589 105.586 154.167C103.923 153.661 102.243 154.48 102.181 156.134C102.113 157.703 101.858 159.311 102.539 160.869C103.021 161.954 103.339 162.381 104.315 162.005C106.375 161.181 108.475 161.699 110.558 161.681C111.375 161.681 112.345 162.307 112.981 162.921C114.173 164.057 115.575 165.052 116.341 166.615C116.544 166.886 116.842 167.071 117.175 167.133C117.47 167.207 117.918 167.28 117.907 166.706C117.907 166.564 117.85 166.377 117.907 166.286C118.327 165.717 118.27 164.723 119.184 164.615C120.359 164.472 121.534 164.529 122.413 165.513C122.532 165.643 122.635 165.99 122.561 166.081C121.59 167.121 122.22 168.196 122.623 169.133C122.906 169.901 123.037 170.715 123.009 171.532C122.97 171.771 122.98 172.015 123.039 172.25C123.097 172.484 123.203 172.704 123.35 172.896C123.719 173.306 123.162 173.641 122.856 173.863C122.788 173.914 122.351 173.55 122.175 173.294C122.073 173.152 122.175 172.879 122.147 172.669C122.109 172.542 122.054 172.422 121.982 172.311C121.88 172.39 121.778 172.459 121.681 172.538C121.621 172.578 121.57 172.63 121.534 172.692C120.909 173.829 121.42 176.716 122.47 177.37C123.338 177.91 123.389 178.859 123.843 179.604C123.877 179.661 123.736 179.911 123.65 179.922C123.369 179.942 123.086 179.942 122.805 179.922C122.805 179.774 122.805 179.626 122.805 179.479C122.805 179.234 122.862 178.99 122.896 178.751C121.988 179.075 122.419 177.694 121.624 177.768C121.081 177.833 120.529 177.757 120.024 177.546C118.503 176.796 117.918 175.443 117.879 173.8C117.834 173.57 117.751 173.35 117.635 173.146C117.436 173.345 117.158 173.516 117.067 173.76C117.018 174.039 117.018 174.323 117.067 174.602L117.09 177.171Z" fill="#DF0000"/>
<path d="M101.568 186.327C103.373 186.674 105.297 185.651 107.34 185.873C108.798 186.032 109.042 186.1 108.98 187.578C108.946 188.374 109.275 189.192 108.634 190.005C108.322 190.397 108.469 191.267 108.634 191.87C108.695 192.221 108.847 192.55 109.077 192.822C109.306 193.095 109.604 193.302 109.939 193.421C110.631 193.66 111.403 193.518 112.067 193.961C112.226 194.069 112.737 193.859 112.958 193.654C114.411 192.313 115.75 190.943 114.661 188.675C114.626 188.417 114.655 188.155 114.745 187.911C114.835 187.668 114.983 187.45 115.177 187.277C116.847 186.003 118.916 185.37 121.011 185.492C121.153 185.492 121.426 185.952 121.369 186.06C120.87 186.975 121.034 188.021 120.722 188.988C120.415 189.845 120.383 190.777 120.631 191.654C120.831 192.054 121.126 192.399 121.49 192.659C121.854 192.919 122.276 193.085 122.72 193.143C123.389 193.274 124.422 192.62 124.791 191.835C125.245 190.892 125.648 189.92 126.074 188.959C125.546 187.362 127.09 187.209 127.822 186.543C127.957 186.432 128.118 186.358 128.29 186.327C128.461 186.296 128.638 186.31 128.803 186.367C128.968 186.424 129.116 186.522 129.232 186.653C129.349 186.783 129.43 186.941 129.468 187.112C129.541 187.373 129.434 187.68 129.468 187.959C129.768 189.38 130.234 189.755 131.675 189.766C132.317 189.766 132.952 189.766 133.593 189.766C134.161 189.766 134.893 189.602 135.217 189.886C135.54 190.17 135.324 190.932 135.427 191.472C135.744 193.234 135.994 195.047 136.738 196.673C137.007 197.22 137.136 197.825 137.112 198.435C137.056 199.511 137.34 200.577 137.924 201.482C138.179 201.947 138.326 202.464 138.355 202.994C138.388 203.38 138.334 203.768 138.196 204.13C137.328 204.159 137.061 205.5 136.005 205.074C135.829 205 135.574 205.017 135.438 204.898C134.694 204.147 133.786 203.477 133.31 202.584C132.866 201.548 132.564 200.456 132.413 199.339C132.22 198.418 132.322 197.372 131.919 196.565C131.405 195.744 130.747 195.022 129.978 194.433C129.7 194.172 128.667 194.626 128.594 195.075C128.367 196.462 127.686 197.696 127.345 199.026C127.215 199.493 127.181 199.981 127.244 200.462C127.308 200.943 127.467 201.405 127.714 201.823C128.089 202.445 128.428 203.088 128.73 203.75C129.297 204.966 129.121 205.273 127.941 205.938C126.941 206.506 125.811 206.805 124.661 206.805C123.511 206.805 122.38 206.506 121.38 205.938C120.875 205.62 120.784 205.495 121.102 205.074C121.558 204.394 122.068 203.754 122.629 203.158C123.14 202.681 123.038 202.152 123.02 201.612C122.998 201.525 122.954 201.444 122.894 201.377C122.834 201.31 122.759 201.258 122.674 201.226C121.176 201.061 119.678 200.856 118.174 200.805C116.67 200.754 116.034 201.374 115.807 202.874C115.559 204.559 114.705 206.095 113.407 207.194C112.872 207.577 112.269 207.853 111.63 208.007C111.46 208.058 111.142 207.814 110.955 207.638C110.433 207.16 109.967 206.614 109.44 206.148C108.912 205.682 108.543 205.802 108.14 206.541C107.385 207.927 106.664 208.041 105.512 206.887C104.107 205.504 102.52 204.319 100.796 203.363C100.515 203.226 100.289 202.997 100.155 202.714C100.021 202.431 99.9869 202.11 100.058 201.806C100.138 201.192 100.512 200.976 101.097 200.748C102.316 200.255 103.489 199.655 104.604 198.958C105.075 198.668 105.541 198.469 105.898 198.804C106.256 199.14 106.676 199.043 107.073 199.077C108.041 199.1 109.001 198.883 109.865 198.446C110.172 198.309 110.505 198.237 110.841 198.236C112.3 198.105 112.391 197.957 112.419 196.434C112.419 195.718 112.067 195.792 111.556 195.633C109.922 195.121 108.271 195.252 106.613 195.252C106.374 195.289 106.129 195.265 105.902 195.182C105.674 195.098 105.472 194.958 105.314 194.774C105.239 194.656 105.138 194.555 105.019 194.481C104.901 194.406 104.767 194.359 104.628 194.342C104.489 194.326 104.348 194.341 104.215 194.386C104.082 194.431 103.961 194.506 103.861 194.604C103.416 194.883 102.926 195.085 102.414 195.201C102.016 195.346 101.58 195.346 101.182 195.201C100.949 195.053 100.961 194.484 100.91 194.092C100.762 192.842 100.416 191.676 99.3264 190.92C98.9928 190.691 98.5959 190.572 98.1913 190.579C96.1255 190.699 94.4059 192.853 94.9961 194.797C95.2004 195.479 96.0744 195.934 96.6533 196.502C96.693 196.536 96.8009 196.502 96.8576 196.502C98.2821 197.27 98.2821 197.292 96.9427 198.207C96.5455 198.48 96.1198 198.725 96.1993 199.344C96.1846 199.546 96.1203 199.742 96.012 199.913C95.3423 201.396 94.7635 201.578 93.39 200.714C93.2141 200.601 93.1006 200.39 92.9304 200.271C92.0223 199.64 91.381 199.799 91.1427 200.896C90.9837 201.641 90.7511 202.067 90.0076 202.033C89.6445 201.951 89.3142 201.763 89.0592 201.491C88.8043 201.219 88.6365 200.878 88.5774 200.51C88.4964 199.423 88.6917 198.334 89.145 197.343C90.6432 194.352 92.4707 191.538 94.5932 188.954C94.6386 188.902 94.7237 188.863 94.7408 188.8C94.8684 188.364 95.0859 187.96 95.3792 187.613C95.6724 187.267 96.0349 186.986 96.4433 186.788C97.4024 186.367 98.5602 186.396 99.6328 186.276C100.2 186.276 100.774 186.327 101.568 186.327Z" fill="#DF0000"/>
<path d="M125.041 18.4622C125.228 16.7569 125.398 15.0517 125.608 13.3464C125.696 13.0295 125.836 12.7297 126.023 12.4597C126.301 11.8912 126.885 11.7321 127.26 12.1868C127.658 12.6322 127.952 13.1602 128.122 13.7329C128.48 15.2335 128.69 16.7569 129.013 18.2803C129.042 18.392 129.097 18.4955 129.173 18.5824C129.248 18.6692 129.344 18.7371 129.45 18.7805C129.74 18.8203 130.137 18.9851 130.285 18.4508C130.529 17.5641 130.909 16.7114 131.108 15.8133C131.329 14.8243 131.142 13.6477 131.624 12.8462C132.192 11.8969 131.817 10.8795 132.316 9.91882C132.736 9.11167 132.35 7.91799 132.804 6.93462C132.883 6.73653 132.89 6.517 132.824 6.3144C132.757 6.1118 132.622 5.939 132.441 5.8262C132.111 5.55611 131.807 5.25541 131.533 4.9281C131.3 4.68062 131.153 4.36376 131.115 4.02537C131.077 3.68699 131.15 3.34545 131.323 3.05231C131.857 2.20537 132.402 1.34706 132.98 0.551268C133.417 -0.0683093 134.087 -0.193362 134.564 0.318216C135.438 1.25611 136.352 2.18263 136.266 3.66052C136.292 3.93154 136.249 4.20459 136.142 4.45478C136.035 4.70497 135.867 4.92435 135.653 5.09294C135.383 5.25888 135.172 5.50573 135.05 5.79852C134.928 6.09131 134.901 6.4152 134.972 6.72431C135.148 7.65651 134.66 8.62283 135.302 9.5664C135.784 10.2883 134.967 11.3797 135.784 12.1243C135.591 13.4487 136.283 14.6708 136.249 15.9782C136.198 16.401 136.198 16.8286 136.249 17.2514C136.294 17.3836 136.368 17.5037 136.467 17.6023C136.565 17.7009 136.685 17.7754 136.817 17.8199C136.964 17.8596 137.333 17.5641 137.384 17.3651C137.658 16.5401 137.831 15.6851 137.901 14.8186C137.905 12.8449 138.196 10.8824 138.763 8.9923C138.849 8.64504 138.849 8.2823 138.763 7.93504C138.725 7.62369 138.773 7.30772 138.902 7.0219C139.031 6.73608 139.237 6.49149 139.496 6.31504C139.762 6.07062 140.018 5.78073 140.37 6.09904C140.721 6.41736 141.005 6.55946 140.846 7.1222C140.239 9.28219 140.455 10.5725 141.136 13.2896C141.669 15.4154 142.271 17.5356 142.668 19.6956C142.879 20.8366 143.005 21.9919 143.043 23.1516C143.043 23.6575 142.963 23.8792 142.367 23.9076C141.567 23.9474 140.784 24.1918 139.989 24.2998C139.195 24.4078 138.412 24.2316 137.583 24.6693C136.976 24.9933 136.056 24.7432 135.279 24.7318C134.297 24.7318 133.497 24.9422 133.043 25.9653C132.85 26.3973 132.419 26.744 131.879 26.1586C130.966 25.1525 129.921 25.4822 128.86 25.9198C128.317 26.1611 127.745 26.3293 127.158 26.42C126.216 26.5337 126.278 26.4655 126.023 25.3457C125.41 23.1011 125.081 20.7887 125.041 18.4622Z" fill="#DF0000"/>
<path d="M136.669 180.462C136.669 180.814 136.669 181.167 136.669 181.525C136.669 182.139 136.38 182.196 135.869 181.911C134.734 181.275 133.633 181.65 132.577 182.133C132.22 182.304 131.965 182.702 131.624 182.912C129.973 183.98 129.921 183.992 128.117 183.332C127.478 183.108 126.895 182.749 126.405 182.28C125.916 181.812 125.532 181.244 125.279 180.615C125.138 180.095 125.199 179.541 125.449 179.064C126.207 177.544 126.567 175.856 126.494 174.158C126.494 172.942 126.8 171.725 126.874 170.503C126.948 169.281 126.823 168.087 126.874 166.882C126.898 166.589 127.003 166.308 127.175 166.07C127.348 165.832 127.583 165.646 127.854 165.533C128.125 165.419 128.422 165.382 128.712 165.425C129.003 165.469 129.276 165.592 129.502 165.78C130.54 166.621 131.505 167.076 132.787 166.32C133.031 166.178 133.4 166.251 133.73 166.752C134.371 167.746 133.701 168.98 134.518 169.844C135.086 172.589 135.653 175.335 136.221 178.08C136.386 178.865 136.601 179.643 136.789 180.422L136.669 180.462Z" fill="#DF0000"/>
<path d="M222.485 183.691C222.206 183.85 221.889 184.191 221.599 184.162C220.271 184.032 219.329 184.89 218.268 185.379C217.4 185.765 216.707 185.186 216.111 184.646C215.226 183.833 214.409 182.94 213.552 182.105C212.668 181.239 211.739 180.419 210.771 179.649C209.205 178.444 208.109 176.728 206.991 175.102C206.849 174.892 206.821 174.602 206.679 174.386C205.879 173.169 205.964 172.891 207.474 172.726C208.149 172.658 208.722 171.691 209.534 172.516C210.032 172.969 210.571 173.375 211.145 173.726C212.848 174.909 214.454 176.278 216.123 177.535C218.234 179.109 220.05 181.082 221.979 182.889C222.173 183.14 222.342 183.408 222.485 183.691V183.691Z" fill="#DF0000"/>
<path d="M140.914 49.0543C141.34 49.0543 141.766 49.0543 142.185 49.0543C142.753 49.0089 143.15 49.0543 143.077 49.799C143.077 50.0207 143.286 50.2708 143.428 50.4925C144.155 51.6293 144.217 52.4308 143.167 52.9139C141.425 53.7154 141.766 55.3013 141.351 56.62C141.249 56.9611 141.629 57.5011 140.92 57.5863C140.646 57.637 140.363 57.5819 140.129 57.4321C139.894 57.2823 139.724 57.049 139.654 56.7792C139.473 56.3579 139.332 55.9201 139.234 55.4718C138.988 53.7684 138.564 52.0956 137.969 50.4811C137.911 50.3173 137.894 50.1419 137.92 49.9702C137.946 49.7985 138.013 49.6357 138.116 49.4961C138.219 49.3564 138.355 49.2442 138.511 49.1692C138.668 49.0941 138.84 49.0586 139.013 49.0657C139.626 49.0259 140.284 49.0543 140.914 49.0543Z" fill="#DF0000"/>
<path d="M171.118 80.0675C170.998 80.3668 170.831 80.645 170.624 80.8917C169.654 81.9205 168.621 82.8869 167.645 83.91C167.281 84.2908 166.782 84.6887 166.407 84.3932C166.182 84.2199 165.999 83.9981 165.872 83.7442C165.744 83.4903 165.675 83.2109 165.67 82.9266C166.005 81.5283 166.073 80.0277 166.896 78.7772C167.09 78.4911 167.321 78.2312 167.582 78.0041C168.32 77.3391 169.228 76.8218 170.147 77.322C170.936 77.7483 171.214 78.6805 171.118 80.0675Z" fill="#DF0000"/>
<path d="M129.008 79.5556C129.008 78.0266 130.381 77.1739 131.908 77.7821C132.285 77.914 132.631 78.1231 132.924 78.396C133.128 78.612 133.344 79.1293 133.236 79.2828C132.708 80.0274 132.543 81.0221 131.59 81.4939C130.324 82.1135 129.377 81.7668 129.019 80.4026C128.981 80.1217 128.977 79.8373 129.008 79.5556V79.5556Z" fill="#DF0000"/>
<path d="M12.075 37.9194L12.7844 38.1582C12.6539 38.4481 12.5347 38.7266 12.3758 39.0279C12.2869 39.1275 12.1734 39.202 12.0466 39.2439C11.5973 39.516 11.122 39.7426 10.6278 39.9203C9.49479 40.1291 8.464 40.7113 7.69938 41.5744C7.54448 41.6993 7.35767 41.778 7.16023 41.8017C6.64946 41.9325 6.31462 41.654 6.4338 41.1481C6.55298 40.6422 6.60973 40.1135 6.9162 39.8862C7.57416 39.4572 8.27862 39.1044 9.01604 38.8346C9.19197 38.755 9.436 38.8346 9.64599 38.8346C10.2305 38.7436 11.0875 39.1984 11.2464 38.0615C11.2578 37.999 11.7402 37.982 12.075 37.9194Z" fill="#DF0000"/>
</svg>
